<svg width="16" height="16" viewBox="0 0 16 16" fill="none" xmlns="http://www.w3.org/2000/svg">
<path fill-rule="evenodd" clip-rule="evenodd" d="M7.22401 2.94181C7.21197 2.9338 7.19962 2.92616 7.18698 2.91889L4.75964 1.52417C4.55398 1.406 4.30103 1.406 4.09537 1.52417L1.66803 2.91889C1.46108 3.0378 1.3335 3.25826 1.3335 3.49693V6.28084C1.3335 6.51951 1.46109 6.73998 1.66803 6.85888L4.09537 8.2536C4.12034 8.26795 4.146 8.28055 4.17219 8.29142C4.35412 8.36687 4.56153 8.35829 4.73767 8.26568C4.74505 8.2618 4.75237 8.25778 4.75964 8.2536L7.18698 6.85888C7.19962 6.85162 7.21197 6.84397 7.22401 6.83597C7.3801 6.7322 7.48456 6.56791 7.51341 6.38452C7.51876 6.35053 7.52151 6.31588 7.52151 6.28084V3.49693C7.52151 3.27284 7.40903 3.06481 7.22401 2.94181ZM8.4869 6.38452C8.51575 6.56791 8.62021 6.7322 8.7763 6.83597C8.78834 6.84397 8.80069 6.85162 8.81333 6.85888L11.2407 8.2536C11.2479 8.25778 11.2553 8.26181 11.2626 8.26568C11.4388 8.35829 11.6462 8.36687 11.8281 8.29141C11.8543 8.28055 11.88 8.26795 11.9049 8.2536L14.3323 6.85888C14.5392 6.73998 14.6668 6.51951 14.6668 6.28084V3.49693C14.6668 3.25826 14.5392 3.0378 14.3323 2.91889L11.9049 1.52417C11.6993 1.40601 11.4463 1.406 11.2407 1.52417L8.81333 2.91889C8.80069 2.92616 8.78834 2.9338 8.7763 2.94181C8.59128 3.06481 8.4788 3.27284 8.4788 3.49693V6.28084C8.4788 6.31588 8.48155 6.35053 8.4869 6.38452ZM11.0861 9.61547C11.055 9.41794 10.9362 9.24256 10.7596 9.14111L8.33229 7.74639C8.32503 7.74222 8.3177 7.73819 8.31032 7.73431C8.29234 7.72486 8.27404 7.71628 8.25547 7.70858C8.09211 7.64083 7.90821 7.64083 7.74484 7.70858C7.72627 7.71628 7.70797 7.72486 7.68999 7.73431C7.68261 7.73819 7.67529 7.74222 7.66802 7.74639L5.24068 9.14111C5.06412 9.24256 4.94533 9.41794 4.91425 9.61547C4.9089 9.64946 4.90615 9.68411 4.90615 9.71915V12.5031C4.90615 12.7417 5.03374 12.9622 5.24068 13.0811L7.66802 14.4758C7.87368 14.594 8.12663 14.594 8.33229 14.4758L10.7596 13.0811C10.9666 12.9622 11.0942 12.7417 11.0942 12.5031V9.71915C11.0942 9.68411 11.0914 9.64946 11.0861 9.61547ZM4.4275 2.87109L2.66683 3.88276V5.89502L4.4275 6.90668L6.18818 5.89502V3.88276L4.4275 2.87109ZM11.5728 2.87109L9.81213 3.88276V5.89502L11.5728 6.90668L13.3335 5.89502V3.88276L11.5728 2.87109ZM8.00016 9.09331L6.23948 10.105V12.1172L8.00016 13.1289L9.76083 12.1172V10.105L8.00016 9.09331Z" fill="#8B5CF6"/>
</svg>
