<svg width="20" height="20" viewBox="0 0 20 20" fill="none" xmlns="http://www.w3.org/2000/svg">
<g clip-path="url(#clip0_7_146)">
<path d="M9.97498 0.727264C10.1967 0.727264 10.5514 0.753028 10.9125 0.930389L16.8666 3.77414L16.8861 3.78683C17.3738 4.04655 17.8172 4.49664 18.0072 5.11105L18.0199 5.14914L19.5277 11.6101V11.6667C19.5974 12.2367 19.4644 12.826 19.1097 13.32L19.0902 13.3454L14.973 18.4382C14.5676 18.9703 13.9213 19.2999 13.2181 19.2429H6.66248C6.06704 19.2049 5.50343 18.9383 5.09803 18.5329L5.05994 18.4948L0.897832 13.3454L0.879277 13.32C0.524601 12.826 0.378631 12.2181 0.492559 11.6101V11.5847L1.96229 5.1423C2.11432 4.5026 2.53874 3.99624 3.10877 3.73019L8.28357 1.2341L9.24061 0.7966C9.52538 0.72703 9.80387 0.727264 9.94959 0.727264H9.97498ZM9.96912 2.00656C9.8171 2.00656 9.68373 2.00661 9.56971 2.03195L3.64686 4.88254C3.42534 4.99019 3.26688 5.18018 3.2035 5.43332L1.74646 11.8318C1.70856 12.0912 1.76557 12.3509 1.91736 12.5661L6.016 17.6335C6.20599 17.8172 6.47216 17.9377 6.73182 17.9568H13.2943C13.5477 17.9884 13.7947 17.8742 13.9594 17.6462L18.0707 12.5661L18.0638 12.573C18.2095 12.3577 18.2737 12.0977 18.2484 11.8318L16.7719 5.4841C16.6958 5.24987 16.5183 5.04725 16.2777 4.92062L10.3422 2.07687C10.2346 2.0263 10.1083 2.00658 9.96912 2.00656ZM10.0258 3.69211C10.1974 3.71428 10.3356 3.86191 10.3549 4.03V4.22336C10.3359 4.29925 10.3357 4.38182 10.3168 4.45773C10.3168 4.49566 10.2983 4.53406 10.2982 4.57199V4.59152C10.2603 4.82579 10.2601 5.04127 10.2601 5.25656C10.2791 5.31976 10.298 5.3768 10.3549 5.41476V5.39523L10.3744 5.55441C11.2926 5.65578 12.1856 6.0036 12.9076 6.56711C13.0659 6.72542 13.2439 6.87755 13.3959 7.03586L13.5541 6.94113H13.5726C13.5916 6.96006 13.6297 6.96066 13.6488 6.96066C13.6868 6.96066 13.7251 6.94156 13.7631 6.92258C13.9403 6.80233 14.1174 6.65012 14.2504 6.49191C14.2693 6.47296 14.3075 6.45356 14.3265 6.41574C14.3645 6.3524 14.4219 6.29502 14.4789 6.23801C14.4975 6.23797 14.5341 6.20138 14.5355 6.19992L14.5551 6.18137C14.6311 6.12437 14.7325 6.08566 14.8275 6.08566C14.9225 6.08577 15.043 6.14351 15.1 6.21945C15.239 6.39677 15.2011 6.63144 15.0238 6.76437C15.0241 6.78283 15.0421 6.78295 15.0238 6.80148C15.0048 6.82049 14.9852 6.82057 14.9662 6.83957C14.884 6.87752 14.8272 6.91588 14.7513 6.95383C14.7133 6.97283 14.6751 6.99244 14.6371 7.01144C14.4408 7.12541 14.2694 7.23891 14.0922 7.39719C14.0542 7.44153 14.0355 7.51792 14.0355 7.57492V7.59348L13.9213 7.70773C14.238 8.19548 14.4728 8.74065 14.6058 9.30441C14.7198 9.87421 14.7579 10.4568 14.682 11.0202L14.8402 11.0583C14.8592 11.1153 14.916 11.1731 14.973 11.1921C15.1883 11.2491 15.4228 11.2864 15.6381 11.3054H15.6566C15.6946 11.3244 15.7329 11.3249 15.7709 11.3249C15.8468 11.3249 15.9293 11.3245 16.0053 11.3435C16.0433 11.3435 16.0814 11.344 16.0814 11.363C16.0818 11.3817 16.1195 11.3816 16.1195 11.3816L16.1068 11.3503C16.2842 11.3883 16.4364 11.5466 16.4554 11.7556C16.3984 11.9139 16.2461 12.028 16.0687 12.028C16.0308 12.028 16.012 12.0275 15.974 12.0085C15.9503 11.9967 15.9375 11.9907 15.9359 11.99C15.8979 11.99 15.8787 11.9704 15.8597 11.9704C15.7775 11.9514 15.7199 11.9137 15.6439 11.8757C15.6061 11.8755 15.5684 11.8565 15.5306 11.8376H15.5111C15.3213 11.7554 15.1061 11.6988 14.891 11.6609H14.8715C14.8082 11.6609 14.7512 11.6795 14.7133 11.7175L14.6947 11.7361L14.5424 11.7175C14.194 12.826 13.4334 13.7632 12.4388 14.365L12.4965 14.5232C12.4965 14.5232 12.4769 14.5237 12.4769 14.5427C12.439 14.606 12.4394 14.682 12.4584 14.739C12.5344 14.9353 12.6359 15.1251 12.7689 15.3025V15.3405C12.8067 15.3783 12.8252 15.3977 12.8441 15.4353C12.9011 15.4986 12.9399 15.5565 12.9779 15.6325C12.9968 15.6514 13.016 15.6703 13.016 15.6892C13.0187 15.6893 13.0343 15.6907 13.0346 15.7077C13.0726 15.8027 13.0731 15.9047 13.0541 15.9997C13.0351 16.1009 12.9523 16.1765 12.8763 16.2146C12.8193 16.2336 12.781 16.2527 12.724 16.2527C12.5721 16.2526 12.4328 16.1512 12.3568 16.0183C12.339 16.0183 12.3383 16.0018 12.3383 15.9997C12.3193 15.9807 12.3192 15.9611 12.3002 15.9421C12.2623 15.8788 12.243 15.8032 12.224 15.7273L12.1859 15.613V15.5945C12.1289 15.3791 12.027 15.1883 11.932 14.9919C11.8877 14.9352 11.8307 14.8976 11.7738 14.8786C11.7738 14.8608 11.7573 14.8592 11.7553 14.8591L11.6791 14.7263C11.489 14.7896 11.2734 14.866 11.058 14.904C10.7099 14.9989 10.3553 15.0368 10.0072 15.0368C9.42454 15.0368 8.86047 14.9416 8.3158 14.7263L8.23963 14.8845L8.2201 14.904C8.15699 14.923 8.09982 14.9605 8.06189 15.0173C7.96688 15.2073 7.86597 15.4045 7.80896 15.6198L7.77088 15.7331C7.75188 15.8155 7.71371 15.8729 7.69471 15.9489C7.67581 15.9678 7.6568 15.9867 7.65662 16.0056C7.63768 16.0056 7.63807 16.0251 7.63807 16.0251C7.56205 16.1645 7.42825 16.2595 7.2699 16.2595C7.2319 16.2594 7.17497 16.2403 7.13709 16.2214C6.95977 16.1264 6.88388 15.8914 6.97889 15.695C6.99754 15.695 6.99744 15.6772 6.99744 15.6765C7.01632 15.6576 7.0169 15.6387 7.03553 15.6198C7.09252 15.5375 7.13132 15.4616 7.16932 15.4236C7.20732 15.3855 7.22551 15.3659 7.24451 15.3279V15.3093C7.35853 15.1319 7.47905 14.9412 7.55506 14.7448C7.57396 14.6816 7.57444 14.6055 7.5365 14.5486L7.51697 14.53L7.61268 14.3972C7.41631 14.3022 7.26367 14.1816 7.08631 14.0486C6.32632 13.4658 5.78199 12.6613 5.49061 11.7683L5.31287 11.7868C5.31277 11.7844 5.31155 11.7685 5.29432 11.7683C5.24998 11.7303 5.19215 11.7107 5.13514 11.7107H5.11658C4.88221 11.755 4.68547 11.8124 4.4701 11.8884H4.45154C4.41354 11.8884 4.37529 11.9075 4.33729 11.9265C4.28036 11.9455 4.19831 11.9836 4.12244 12.0027H4.04627C4.0336 12.0153 4.02674 12.0212 4.02674 12.0212C3.98882 12.0401 3.96997 12.0407 3.93201 12.0407C3.76102 12.0597 3.58333 11.9456 3.54529 11.7683C3.50729 11.553 3.64055 11.3561 3.85584 11.3181C3.87961 11.3062 3.89245 11.3003 3.89393 11.2995C3.93193 11.2995 3.95109 11.28 3.9701 11.28C4.0461 11.28 4.12848 11.2614 4.20447 11.2614C4.24247 11.2424 4.28073 11.2419 4.31873 11.2419C4.55298 11.2229 4.7685 11.1856 4.98377 11.1286C5.04077 11.0906 5.09758 11.0518 5.11658 10.9948L5.13514 10.9763L5.29432 10.9382C5.12331 9.82974 5.3762 8.70228 5.97791 7.74582C5.9969 7.70784 6.01654 7.68904 6.03553 7.65109L5.92225 7.53781C5.93052 7.47851 5.8982 7.41318 5.86365 7.37863C5.70539 7.22671 5.51594 7.10586 5.31971 6.99191C5.28179 6.97296 5.24336 6.95423 5.20545 6.93527C5.1231 6.89727 5.04664 6.85902 4.98963 6.82101C4.97095 6.82068 4.93453 6.78446 4.93299 6.78293C4.93299 6.78248 4.93223 6.76437 4.91346 6.76437C4.76145 6.63135 4.72426 6.39681 4.83826 6.21945C4.89527 6.12444 4.9967 6.08566 5.11072 6.08566C5.20553 6.08579 5.30634 6.12452 5.38221 6.18137L5.40174 6.19992C5.42067 6.21885 5.43945 6.21922 5.45838 6.23801C5.52168 6.30131 5.55963 6.35877 5.61658 6.41574C5.63559 6.43474 5.67375 6.45391 5.69275 6.49191C5.8321 6.65025 6.0037 6.80813 6.18104 6.94113C6.21884 6.96003 6.25652 6.97906 6.29432 6.97922C6.33008 6.97922 6.3664 6.96265 6.37049 6.96066H6.39002L6.50428 7.03586C7.14391 6.35842 7.98604 5.87091 8.89783 5.67453C9.13202 5.63655 9.34767 5.59882 9.56287 5.5798L9.5824 5.42062V5.38351C9.63941 5.33917 9.65813 5.28134 9.67713 5.22433C9.67713 4.99009 9.67703 4.77456 9.63904 4.5593V4.54074C9.63904 4.50274 9.63948 4.46448 9.62049 4.42648C9.60149 4.35047 9.5824 4.26812 9.5824 4.19211V4.09738C9.5824 4.00237 9.62065 3.90093 9.69666 3.82492C9.79167 3.72994 9.91177 3.67311 10.0258 3.69211ZM10.0765 12.155C9.94356 12.079 9.78485 12.1163 9.68982 12.2302L8.73377 13.9665C9.12638 14.0868 9.5507 14.1628 9.96229 14.1628C10.2536 14.1628 10.5259 14.1241 10.7982 14.0671V14.0612C10.9376 14.0232 11.0519 14.0041 11.1722 13.9851L10.2347 12.2878C10.1715 12.2309 10.1334 12.1929 10.0765 12.155ZM6.37732 11.654C6.6497 12.4331 7.19421 13.1174 7.8783 13.5671L8.61951 11.7741H8.61365C8.65139 11.7109 8.65117 11.6347 8.63221 11.5779C8.61309 11.4197 8.46127 11.325 8.30311 11.3249L6.37732 11.654ZM11.6029 11.3054C11.5396 11.3054 11.4822 11.3245 11.4252 11.3435C11.2861 11.4005 11.2107 11.5526 11.2484 11.7107L12.0082 13.5417C12.4705 13.2504 12.8828 12.8453 13.1742 12.3767H13.1801C13.332 12.1614 13.4523 11.9077 13.5472 11.6355L11.6029 11.3054ZM9.66443 9.74777L9.29725 10.2165L9.43006 10.78L9.95643 11.0329L10.4818 10.78L10.6215 10.2165L10.2543 9.74777H9.66443ZM11.7299 9.69016C11.6919 9.72816 11.6727 9.76693 11.6537 9.82394C11.616 9.99482 11.7109 10.1717 11.8881 10.2097L13.7377 10.7361V10.7419C13.7757 10.3303 13.7565 9.92503 13.6615 9.5134C13.5665 9.10806 13.4081 8.71526 13.1928 8.36691L11.7299 9.69016ZM6.71326 8.36008C6.28252 9.0822 6.0918 9.91891 6.14881 10.7361L8.0365 10.1911C8.11885 10.1721 8.1567 10.1524 8.19471 10.0954C8.31502 9.95607 8.28963 9.76022 8.15662 9.64621L6.71326 8.36008ZM9.08826 6.65012H9.09412C8.4102 6.80853 7.78923 7.15662 7.2826 7.64426L8.89783 8.79074C8.95482 8.80974 8.99321 8.82881 9.05018 8.82883C9.22754 8.82883 9.37928 8.69564 9.37928 8.51828L9.47498 6.57394L9.08826 6.65012ZM10.5258 8.5632C10.5258 8.62005 10.5454 8.65807 10.5834 8.69601C10.6848 8.8289 10.8811 8.84816 11.014 8.77219L12.6097 7.64426C12.0271 7.06173 11.2674 6.68755 10.4125 6.5925L10.5258 8.5632Z" fill="#B1B7C0"/>
</g>
<defs>
<clipPath id="clip0_7_146">
<rect width="20" height="20" fill="white"/>
</clipPath>
</defs>
</svg>
