<svg width="16" height="16" viewBox="0 0 16 16" fill="none" xmlns="http://www.w3.org/2000/svg">
<path d="M10.9101 1.24544C12.2864 1.25952 13.4797 1.77905 14.2987 2.7884C14.6154 3.17891 14.6983 3.71323 14.69 4.22786C14.6822 4.7191 14.5878 5.29201 14.4296 5.88281C14.1915 6.77189 13.8104 7.69958 13.3411 8.55728C13.3586 8.55396 13.3769 8.5518 13.3951 8.54817C13.5946 8.50845 13.84 8.48666 14.08 8.55663C14.1966 8.59068 14.3057 8.64611 14.4016 8.7207C14.4016 8.7207 14.5954 8.86718 14.6669 8.99935C14.7464 9.14631 14.7519 9.41861 14.7519 9.41861C14.757 9.62625 14.6917 9.80748 14.6171 9.9388C14.5152 10.1182 14.3727 10.2589 14.2525 10.36C14.0696 10.5139 13.8567 10.6429 13.6757 10.7363L13.5077 10.8177C13.1127 10.9945 12.5611 11.0875 12.0917 11.0944C12.0453 11.4645 11.9924 11.8724 11.9433 12.2083L11.8684 12.6816C11.7757 13.2002 11.5929 13.669 11.2206 14.0345C10.8536 14.3948 10.3764 14.5817 9.84561 14.6914C9.64637 14.7326 9.45566 14.7526 9.274 14.7526C8.62993 14.7526 8.16468 14.4968 7.85082 14.1693C7.55806 13.8638 7.41825 13.5162 7.35993 13.3756C7.29047 13.2081 7.2516 13.0031 7.22582 12.8223C7.19798 12.627 7.1777 12.3994 7.16267 12.1562C7.15097 11.9669 7.14318 11.7632 7.13728 11.5508C6.96474 11.5861 6.78705 11.6068 6.60472 11.6068C6.41946 11.6068 6.2316 11.5887 6.04288 11.554L5.85407 11.5137C5.80487 11.5018 5.592 11.448 5.37751 11.3294C5.33429 11.3055 5.27277 11.2687 5.20564 11.2181C4.96218 11.363 4.70782 11.4342 4.45238 11.4342C4.28667 11.4342 4.13882 11.4044 4.01488 11.3646C3.49329 11.1967 3.1016 10.7532 2.79939 10.2559C2.48572 9.7396 2.20106 9.05363 1.93871 8.2246C1.54463 6.97922 1.28086 5.64115 1.25512 5.14452C1.18483 3.78818 1.54357 2.63652 2.5253 1.96549C3.31799 1.42383 4.35268 1.30979 5.49795 1.48762C5.95229 1.55822 6.34846 1.66579 6.6236 1.75064C7.12977 1.49138 7.70067 1.37325 8.31371 1.38281C8.62779 1.38779 8.92336 1.42203 9.20108 1.47656C9.55262 1.37269 10.1928 1.2377 10.9101 1.24544ZM10.9029 1.9121C10.0748 1.90316 9.37512 2.10787 9.23949 2.16536C8.95382 2.09685 8.6423 2.05485 8.30329 2.04947C7.68161 2.03979 7.14404 2.18325 6.69913 2.4759C6.50574 2.40646 6.00637 2.24136 5.39574 2.14648C4.33969 1.9825 3.50045 2.10641 2.9016 2.51562C2.18704 3.00392 1.85723 3.87689 1.92113 5.11002C1.94264 5.52492 2.18738 6.80123 2.57413 8.02343C3.08321 9.63214 3.63706 10.5425 4.21931 10.7298C4.28741 10.7517 4.36581 10.7675 4.45238 10.7676C4.66478 10.7676 4.92559 10.6748 5.19652 10.3607C5.52689 9.97841 5.86857 9.6054 6.22126 9.24218C6.45011 9.36066 6.70176 9.42694 6.95889 9.43359C6.95939 9.4399 6.96026 9.44619 6.96084 9.45247C6.91659 9.50336 6.87301 9.55508 6.83064 9.60742C6.65244 9.8256 6.61518 9.87112 6.04157 9.98502C5.87819 10.0176 5.44507 10.1043 5.43871 10.3971C5.43212 10.717 5.95103 10.8516 6.01032 10.8659C6.21646 10.9157 6.41534 10.9401 6.60472 10.9401C7.06513 10.9401 7.47034 10.7941 7.79418 10.5117C7.78422 11.6527 7.8338 12.777 7.97582 13.1198C8.09217 13.4003 8.37631 14.0858 9.274 14.0859C9.40574 14.0859 9.55133 14.0714 9.71084 14.0384C10.6477 13.8447 11.0547 13.445 11.2121 12.5644C11.2964 12.0938 11.441 10.9694 11.509 10.3665C11.6524 10.4097 11.8369 10.4297 12.0364 10.4297C12.4527 10.4297 12.9335 10.3445 13.2349 10.2096C13.5735 10.0579 14.1849 9.68534 14.0741 9.36197C14.0167 9.19472 13.8319 9.14079 13.5253 9.20182C12.6145 9.38313 12.2881 9.25771 12.1809 9.18163C12.8889 8.14124 13.4715 6.88364 13.7857 5.71028C13.9345 5.15452 14.0166 4.63817 14.0233 4.21744C14.0308 3.75574 13.9492 3.4163 13.7812 3.20898C13.1031 2.37324 12.1076 1.9244 10.9029 1.9121ZM8.29743 2.40885C9.67054 2.43056 10.5511 3.11065 11.0481 3.67708C11.4762 4.16507 11.7082 4.65672 11.8007 4.92187C11.1047 4.85359 10.6311 4.98618 10.3912 5.31705C9.86964 6.03684 10.6769 7.43349 11.065 8.10481C11.1362 8.22783 11.198 8.33436 11.2174 8.37955C11.3437 8.67486 11.5074 8.87236 11.6269 9.01627C11.6634 9.06029 11.6989 9.10333 11.7258 9.14062C11.5151 9.19924 11.1367 9.33434 11.1711 10.0111C11.1433 10.3507 10.9449 11.9414 10.8443 12.5032C10.7116 13.2453 10.4287 13.5221 9.63272 13.6868C8.8072 13.8575 8.5148 13.4508 8.32217 12.9863C8.19786 12.6864 8.13689 11.3343 8.18025 9.84114C8.18078 9.82132 8.17744 9.80186 8.17178 9.78385C8.1667 9.7483 8.15925 9.71286 8.149 9.67838C8.08451 9.46122 7.92722 9.27976 7.73884 9.20442C7.66396 9.17451 7.52638 9.11939 7.36123 9.16015C7.39644 9.02019 7.45777 8.86189 7.524 8.69075L7.55199 8.61913C7.58326 8.53798 7.62248 8.45357 7.66397 8.36458C7.88824 7.88401 8.19513 7.22564 7.86189 5.73893C7.73703 5.182 7.32002 4.90957 6.68806 4.97265C6.30909 5.01046 5.96191 5.15826 5.78897 5.24283C5.75183 5.26096 5.71786 5.2785 5.6861 5.29557C5.73437 4.73436 5.91684 3.68573 6.59887 3.02213C7.02838 2.60437 7.60053 2.39772 8.29743 2.40885ZM8.28637 3.07551C7.73546 3.06678 7.34519 3.22621 7.06371 3.49999C6.83749 3.72012 6.6788 4.01207 6.56892 4.31575C6.5864 4.31365 6.604 4.311 6.62165 4.30924C7.0422 4.26723 7.46874 4.32987 7.82933 4.5651C8.1987 4.80611 8.41892 5.17668 8.51228 5.59309C8.69331 6.40072 8.70897 7.02224 8.63077 7.53059C8.55224 8.04102 8.38295 8.39843 8.26748 8.64583C8.25501 8.67258 8.24515 8.69784 8.23493 8.72005C8.50508 8.90608 8.69823 9.18744 8.78767 9.48827C8.80243 9.53788 8.81368 9.58858 8.82282 9.63932C8.83953 9.70845 8.84836 9.78228 8.84626 9.85937V9.86067C8.82497 10.594 8.82955 11.2886 8.85407 11.8314C8.86636 12.1033 8.88354 12.3298 8.90355 12.5006C8.92661 12.6974 8.94674 12.752 8.93806 12.7311C9.02198 12.9334 9.08187 13.0008 9.1184 13.026C9.12769 13.0324 9.20715 13.0938 9.4973 13.0338L9.72321 12.9779C9.90874 12.9229 9.98425 12.8708 10.0214 12.8346C10.0632 12.7938 10.1319 12.7002 10.1881 12.3861C10.2826 11.8576 10.4713 10.342 10.5038 9.97851C10.495 9.58811 10.5869 9.25321 10.7844 8.99088C10.7224 8.88858 10.6601 8.77275 10.6041 8.64192C10.6097 8.65514 10.6119 8.65816 10.6047 8.64452C10.599 8.63367 10.5904 8.61798 10.5787 8.597C10.5548 8.55431 10.5243 8.50127 10.4882 8.4388C10.2982 8.11015 9.9672 7.54117 9.75837 6.95117C9.65357 6.65501 9.56749 6.32043 9.5559 5.98437C9.54424 5.64523 9.60767 5.26129 9.85147 4.92512C10.0748 4.61717 10.38 4.43368 10.7219 4.33463C10.6683 4.26301 10.6107 4.18941 10.5468 4.11653C10.1336 3.64561 9.41758 3.09344 8.28637 3.07551ZM7.31696 9.60546C7.43896 9.4737 7.49507 9.49594 7.59626 9.53645C7.6782 9.56916 7.75786 9.66836 7.79027 9.77734C7.8056 9.82887 7.82314 9.92712 7.76683 10.0032C7.29144 10.6453 6.59832 10.637 6.10082 10.5169C5.99834 10.4922 5.90619 10.449 5.85212 10.4134C5.89729 10.3929 5.97769 10.365 6.11709 10.3372C6.79185 10.2033 6.89604 10.1088 7.1236 9.83007C7.17577 9.76615 7.23505 9.69369 7.31696 9.60546ZM3.11644 2.80989C4.0982 2.13837 5.71264 2.54027 6.36124 2.74413C6.35192 2.75301 6.34181 2.76114 6.33259 2.77018C5.26834 3.80693 5.29351 5.57856 5.29613 5.68684C5.29605 5.72861 5.29965 5.78792 5.30459 5.86913C5.32292 6.16707 5.35718 6.72129 5.26618 7.34895C5.1816 7.93245 5.36827 8.50369 5.7779 8.91601C5.81988 8.95819 5.86397 8.99849 5.91006 9.03645C5.72772 9.22484 5.33128 9.64139 4.90941 10.1309C4.6109 10.4771 4.40494 10.4111 4.33715 10.3893C3.89545 10.2472 3.38275 9.34651 2.9309 7.91861C2.54 6.68333 2.31171 5.44114 2.29353 5.09244C2.23645 3.99068 2.5133 3.22258 3.11644 2.80989ZM11.9882 9.49218C12.2924 9.68574 12.835 9.70651 13.6008 9.55403L13.6093 9.55273C13.506 9.64588 13.3287 9.77116 13.078 9.88346C12.8625 9.97988 12.5019 10.0521 12.1594 10.0677C11.781 10.0848 11.5882 10.0265 11.5429 9.99088C11.5217 9.56922 11.6844 9.52515 11.8567 9.47851C11.8836 9.47121 11.91 9.46425 11.9355 9.45572C11.9513 9.46815 11.9692 9.48009 11.9882 9.49218ZM4.81762 3.11393C4.26659 3.07581 3.79987 3.14995 3.49275 3.36002C3.16691 3.58302 2.90791 4.0614 2.95954 5.05794C2.9736 5.32632 3.18397 6.50716 3.56696 7.71744C3.78495 8.40628 4.00908 8.9407 4.21735 9.30663C4.30395 9.45875 4.38176 9.57 4.44652 9.64778C4.64679 9.41671 4.8391 9.20248 5.00577 9.02213C4.65873 8.50865 4.5155 7.88327 4.60668 7.2539C4.68704 6.69951 4.6573 6.20387 4.63923 5.91015C4.63492 5.83945 4.62931 5.75311 4.62946 5.68489C4.62752 5.56067 4.62924 5.056 4.76293 4.43619C4.84558 4.05301 4.98442 3.59953 5.22191 3.15885C5.09093 3.13871 4.95496 3.12343 4.81762 3.11393ZM5.67048 5.73567C5.82596 5.60268 6.54661 5.23088 7.06045 5.34439C7.29492 5.39617 7.43791 5.55019 7.4973 5.8151C7.80464 7.18641 7.53779 7.7581 7.32347 8.21744C7.27933 8.31201 7.23797 8.40165 7.20238 8.49413L7.17439 8.56575C7.10449 8.7465 7.03955 8.91462 6.99926 9.07421C6.64823 9.07323 6.30644 8.92871 6.04678 8.66731C5.71671 8.33504 5.56676 7.87274 5.63532 7.39908C5.73143 6.7359 5.69607 6.15808 5.67699 5.84765C5.67431 5.80422 5.67185 5.76568 5.67048 5.73567ZM10.9498 2.27278C12.0291 2.29576 12.883 2.68526 13.4875 3.43033C13.9512 4.00183 13.4407 6.60228 11.9628 8.8457C11.948 8.82756 11.9328 8.8097 11.9179 8.79166L11.899 8.76887C12.2809 8.16046 12.2064 7.55844 12.1399 7.02473C12.1126 6.80574 12.0864 6.59861 12.093 6.40429C12.0998 6.19847 12.1282 6.02163 12.1555 5.8509C12.189 5.6405 12.2235 5.42268 12.2141 5.16601C12.2211 5.13912 12.2236 5.10734 12.22 5.06965C12.1959 4.82346 11.9044 4.08681 11.3105 3.41991C10.9855 3.05514 10.512 2.64643 9.86514 2.37109C10.1434 2.31548 10.5238 2.26365 10.9498 2.27278ZM10.6972 5.52278C10.8129 5.36356 11.1063 5.20029 11.8424 5.2884C11.8392 5.46623 11.8139 5.62769 11.787 5.79622C11.758 5.9776 11.7282 6.16556 11.7206 6.39322C11.7132 6.61469 11.7417 6.84502 11.7694 7.0677C11.8255 7.51763 11.8834 7.98109 11.6607 8.43814C11.6237 8.37493 11.5905 8.30927 11.5618 8.24218C11.5341 8.17746 11.4737 8.0735 11.3905 7.92968C11.0667 7.36954 10.3091 6.0579 10.6972 5.52278ZM6.85277 5.98958C6.76721 5.98959 6.6314 6.01153 6.45824 6.07421C6.42384 6.08667 6.39058 6.10047 6.35863 6.11393C6.37255 6.45976 6.37441 6.95014 6.29548 7.49478C6.26109 7.73258 6.32196 7.95466 6.45759 8.12695L6.52009 8.19726L6.57413 8.24674C6.57627 8.24852 6.57848 8.2502 6.58064 8.25195C6.62569 8.13519 6.67718 8.02579 6.71931 7.93554C6.82367 7.71187 6.90673 7.52917 6.94652 7.26041C6.98622 6.99224 6.98672 6.59928 6.85277 5.98958ZM11.9211 3.10741C12.2054 3.44919 12.4217 3.79861 12.5748 4.10286C12.736 4.42326 12.8592 4.75738 12.8834 5.00455C12.8836 5.00732 12.8838 5.01023 12.884 5.01301C12.9503 4.68979 12.9827 4.4115 12.9862 4.1914C12.9886 4.04502 12.9777 3.94032 12.9634 3.87304C12.9588 3.85102 12.9539 3.83664 12.9511 3.82812C12.6775 3.49855 12.3382 3.25546 11.9211 3.10741Z" fill="#121212"/>
<path fill-rule="evenodd" clip-rule="evenodd" d="M13.4994 9.38651C12.0118 9.6832 11.9095 9.19626 11.9095 9.19626C13.4802 6.94296 14.1368 4.08273 13.5702 3.3827C12.0244 1.47316 9.34856 2.37626 9.30389 2.39967L9.28953 2.40218C8.99561 2.34319 8.66673 2.30807 8.29703 2.30222C7.62396 2.29158 7.11335 2.47284 6.72589 2.75691C6.72589 2.75691 1.95246 0.855633 2.17451 5.14808C2.22172 6.06124 3.52824 12.0576 5.08659 10.2464C5.65616 9.58411 6.20653 9.02413 6.20653 9.02413C6.47985 9.19968 6.80707 9.28925 7.15012 9.2571L7.17677 9.23524C7.16848 9.31744 7.17228 9.39787 7.18743 9.49309C6.78597 9.92675 6.90397 10.0029 6.10145 10.1626C5.28936 10.3244 5.76641 10.6125 6.07788 10.6878C6.45548 10.7791 7.32904 10.9084 7.91928 10.1095L7.89577 10.2007C8.05302 10.3225 8.16347 10.993 8.14497 11.6008C8.12645 12.2086 8.11411 12.6259 8.238 12.9519C8.36199 13.2778 8.4855 14.0112 9.54053 13.7927C10.422 13.61 10.8789 13.1367 10.9424 12.3472C10.9875 11.7859 11.0896 11.8689 11.096 11.367L11.1779 11.1295C11.2723 10.3686 11.1929 10.1231 11.736 10.2373L11.868 10.2485C12.2677 10.2661 12.7909 10.1863 13.098 10.0484C13.7591 9.75173 14.1513 9.25637 13.4993 9.38651H13.4994" fill="#336791"/>
<path fill-rule="evenodd" clip-rule="evenodd" d="M11.1878 5.54396C11.1754 5.40799 11.0182 5.36923 10.869 5.40115C10.72 5.43308 10.5755 5.5366 10.5876 5.67287C10.5973 5.77883 10.7216 5.95975 10.8688 5.95975C10.8812 5.95975 10.8938 5.95847 10.9064 5.95572C11.0047 5.93478 11.0767 5.83877 11.111 5.78345C11.1631 5.69908 11.1933 5.60507 11.1878 5.54396M6.90384 5.53832C6.77453 5.51061 6.65742 5.53623 6.59816 5.60529C6.56487 5.64413 6.55454 5.68913 6.55174 5.7201C6.54431 5.80216 6.58167 5.8929 6.60463 5.93968C6.66957 6.07217 6.76443 6.16321 6.85834 6.18327C6.87195 6.18622 6.8855 6.18757 6.89895 6.18757C7.05554 6.18757 7.19792 5.99991 7.21047 5.8614C7.22616 5.68795 7.06253 5.57232 6.90384 5.53838" fill="white"/>
<path fill-rule="evenodd" clip-rule="evenodd" d="M13.078 9.88319C12.8625 9.97968 12.5018 10.052 12.1592 10.0676C11.7807 10.0847 11.588 10.0267 11.5427 9.99105C11.5215 9.5692 11.6842 9.52513 11.8565 9.47848C11.8836 9.47116 11.91 9.46398 11.9355 9.4554C11.9513 9.46783 11.9687 9.48019 11.9877 9.49228C12.2919 9.68593 12.8344 9.70683 13.6004 9.55432L13.6088 9.55271C13.5055 9.64586 13.3287 9.7709 13.078 9.88319V9.88319ZM9.63224 13.6865C8.80673 13.8571 8.51443 13.4508 8.3218 12.9864C8.19749 12.6866 8.13639 11.3345 8.17974 9.84126C8.18029 9.8214 8.17736 9.80221 8.17169 9.78416C8.16661 9.74851 8.15891 9.71323 8.14862 9.67865C8.08417 9.46138 7.92706 9.27964 7.73859 9.20429C7.66371 9.17438 7.5263 9.11947 7.36115 9.16023C7.39636 9.02026 7.45742 8.86219 7.52366 8.69104L7.55144 8.61906C7.58271 8.5379 7.62197 8.45382 7.66346 8.36481C7.88775 7.8842 8.19492 7.22591 7.86155 5.73876C7.73667 5.18174 7.31966 4.90972 6.68752 4.97292C6.30856 5.01073 5.96183 5.15821 5.78888 5.24279C5.75169 5.26094 5.7177 5.27852 5.68591 5.2956C5.73418 4.73437 5.91653 3.68552 6.59867 3.02192C7.02818 2.60416 7.60017 2.39783 8.29707 2.40896C9.67025 2.43063 10.5508 3.11034 11.0478 3.67678C11.476 4.16485 11.7079 4.65654 11.8004 4.92172C11.1045 4.85344 10.6312 4.98595 10.3912 5.31682C9.86924 6.03655 10.6768 7.43346 11.0649 8.10484C11.1361 8.22786 11.1975 8.33421 11.2168 8.3794C11.3433 8.67484 11.5069 8.87211 11.6263 9.01606C11.663 9.06017 11.6985 9.10298 11.7255 9.14036C11.5147 9.19898 11.1361 9.33439 11.1706 10.0113C11.1428 10.351 10.9449 11.9412 10.8444 12.5031C10.7117 13.2454 10.4285 13.5219 9.63224 13.6866V13.6865ZM6.1007 10.5167C5.9982 10.492 5.90601 10.4491 5.85193 10.4135C5.8971 10.3931 5.9775 10.3651 6.11695 10.3374C6.79173 10.2035 6.89596 10.1089 7.12355 9.83016C7.17572 9.76624 7.23486 9.69381 7.31677 9.60558L7.31687 9.60549C7.43887 9.47372 7.49467 9.49608 7.59586 9.53659C7.67789 9.56928 7.75777 9.66844 7.79015 9.77756C7.80548 9.82909 7.82268 9.9269 7.76637 10.003C7.29098 10.6451 6.59821 10.6368 6.1007 10.5167V10.5167ZM6.04679 8.66723C5.71661 8.3349 5.56664 7.87265 5.6353 7.39887C5.73143 6.73555 5.69596 6.15784 5.67689 5.84745C5.67421 5.80402 5.67184 5.76595 5.67047 5.73595C5.82594 5.60295 6.54648 5.2306 7.06034 5.34416C7.2948 5.39594 7.43768 5.54996 7.49707 5.81486C7.80449 7.18634 7.53776 7.75796 7.32343 8.21733C7.27926 8.31196 7.23751 8.40141 7.2019 8.49394L7.17428 8.56548C7.10435 8.74634 7.03928 8.91452 6.99896 9.0742C6.64793 9.07321 6.30646 8.92858 6.04679 8.66717V8.66723ZM4.90944 10.1311C4.61092 10.4773 4.40479 10.4109 4.33701 10.3892C3.8953 10.2471 3.38276 9.34658 2.93089 7.91863C2.53989 6.68306 2.31139 5.44061 2.29329 5.09222C2.23621 3.99036 2.51313 3.22247 3.11638 2.8098C4.09814 2.13828 5.71224 2.54021 6.36084 2.74407C6.35153 2.75294 6.34181 2.76124 6.3326 2.77027C5.26826 3.80701 5.29352 5.57834 5.29614 5.68662C5.29605 5.7284 5.29968 5.78755 5.30464 5.8689C5.32296 6.16684 5.35706 6.72132 5.26599 7.34926C5.1814 7.93278 5.3679 8.50392 5.77757 8.91623C5.81961 8.95848 5.8638 8.99868 5.90997 9.03668C5.72762 9.22507 5.33131 9.64164 4.90944 10.1311V10.1311ZM10.9495 2.27286C12.0289 2.29584 12.8828 2.68532 13.4873 3.43044C13.951 4.00196 13.4404 6.60247 11.9624 8.84594C11.9475 8.82772 11.9325 8.80955 11.9175 8.79143L11.8988 8.7689C12.2808 8.16048 12.2061 7.55851 12.1396 7.0248C12.1123 6.80578 12.0865 6.59891 12.0931 6.40458C12.0998 6.19864 12.1281 6.02197 12.1554 5.85116C12.1889 5.64069 12.2231 5.42288 12.2137 5.16612C12.2207 5.13919 12.2235 5.10738 12.2198 5.06959C12.1958 4.82339 11.9044 4.08653 11.3104 3.41961C10.9855 3.0548 10.5116 2.64658 9.86466 2.37124C10.1429 2.31561 10.5235 2.26373 10.9495 2.27286V2.27286ZM11.8423 5.28809C11.8392 5.46607 11.8138 5.62766 11.7869 5.79632C11.7579 5.97771 11.7279 6.16526 11.7204 6.39292C11.713 6.61448 11.7416 6.84482 11.7694 7.06761C11.8254 7.51756 11.883 7.98079 11.6603 8.43787C11.6233 8.37465 11.5903 8.30932 11.5616 8.24223C11.534 8.17752 11.4738 8.07357 11.3906 7.92969C11.0669 7.36964 10.3087 6.05815 10.6968 5.52298C10.8124 5.36369 11.1058 5.19991 11.8423 5.28809V5.28809ZM14.0737 9.36212C14.0164 9.19477 13.8317 9.14095 13.5249 9.20206C12.6139 9.38339 12.2877 9.25778 12.1805 9.1817C12.8886 8.14124 13.4711 6.88352 13.7854 5.71008C13.9342 5.15422 14.0165 4.63799 14.0232 4.21722C14.0306 3.7554 13.9491 3.41604 13.7809 3.20873C13.1028 2.37299 12.1076 1.9247 10.9029 1.9124C10.0747 1.90342 9.37496 2.10784 9.23931 2.16533C8.95363 2.09682 8.64222 2.05476 8.30319 2.04938C7.68146 2.03968 7.14403 2.18324 6.69909 2.47592C6.50582 2.40651 6.00634 2.24112 5.3955 2.14621C4.33945 1.98223 3.50027 2.10649 2.90142 2.51569C2.18685 3.00399 1.85696 3.87687 1.92087 5.11C1.94237 5.52488 2.18746 6.80114 2.57422 8.02338C3.08331 9.63209 3.63673 10.5428 4.21898 10.7301C4.28714 10.7521 4.36572 10.7674 4.45238 10.7674C4.66478 10.7674 4.92521 10.675 5.19614 10.3609C5.52662 9.97847 5.86846 9.60537 6.22127 9.24202C6.45016 9.36052 6.70162 9.42669 6.9588 9.43332C6.95931 9.43981 6.95997 9.4463 6.96057 9.45274C6.9163 9.50367 6.87294 9.55532 6.83054 9.60769C6.65235 9.82588 6.61526 9.87132 6.04165 9.98521C5.87848 10.0177 5.44512 10.1039 5.43876 10.3969C5.43187 10.717 5.95104 10.8515 6.01017 10.8657C6.21631 10.9155 6.4149 10.94 6.60428 10.94C7.06486 10.94 7.47017 10.794 7.79409 10.5115C7.78412 11.6528 7.83345 12.7774 7.97552 13.12C8.09189 13.4005 8.37614 14.0861 9.27402 14.086C9.40577 14.086 9.55078 14.0712 9.7103 14.0382C10.6474 13.8445 11.0543 13.445 11.2117 12.5643C11.296 12.0936 11.4405 10.9696 11.5085 10.3667C11.652 10.4099 11.8368 10.4297 12.0365 10.4296C12.453 10.4296 12.9336 10.3443 13.235 10.2093C13.5735 10.0576 14.1846 9.68549 14.0737 9.36212V9.36212Z" fill="white"/>
</svg>
