<svg width="50" height="50" viewBox="0 0 50 50" fill="none" xmlns="http://www.w3.org/2000/svg">
<rect x="5" y="41" width="40" height="2" fill="#087DED"/>
<rect x="5" y="7" width="40" height="2" fill="#087DED"/>
<path d="M3.5 33.5C3.5 31.8431 4.84315 30.5 6.5 30.5H31.5C33.1569 30.5 34.5 31.8431 34.5 33.5C34.5 35.1569 33.1569 36.5 31.5 36.5H6.5C4.84315 36.5 3.5 35.1569 3.5 33.5Z" fill="url(#paint0_radial_16_15086)" fill-opacity="0.9"/>
<circle cx="31.5" cy="33.5" r="3" fill="white"/>
<path d="M15.5 24.5C15.5 22.8431 16.8431 21.5 18.5 21.5H42C43.6569 21.5 45 22.8431 45 24.5C45 26.1569 43.6569 27.5 42 27.5H18.5C16.8431 27.5 15.5 26.1569 15.5 24.5Z" fill="url(#paint1_radial_16_15086)" fill-opacity="0.9"/>
<circle cx="42" cy="24.5" r="3" fill="#93CAFF"/>
<path d="M3.5 16C3.5 14.3431 4.84315 13 6.5 13H25C26.6569 13 28 14.3431 28 16C28 17.6569 26.6569 19 25 19H6.5C4.84315 19 3.5 17.6569 3.5 16Z" fill="url(#paint2_radial_16_15086)" fill-opacity="0.9"/>
<circle cx="25" cy="16" r="3" fill="#006DD6"/>
<defs>
<radialGradient id="paint0_radial_16_15086" cx="0" cy="0" r="1" gradientUnits="userSpaceOnUse" gradientTransform="translate(32.7778 33.5) rotate(-180) scale(27.4694 7.03125)">
<stop stop-color="#0082FF"/>
<stop offset="1" stop-color="#198FFF" stop-opacity="0"/>
</radialGradient>
<radialGradient id="paint1_radial_16_15086" cx="0" cy="0" r="1" gradientUnits="userSpaceOnUse" gradientTransform="translate(43.3611 24.5) rotate(-180) scale(26.1403 7.03125)">
<stop stop-color="#0082FF"/>
<stop offset="1" stop-color="#198FFF" stop-opacity="0"/>
</radialGradient>
<radialGradient id="paint2_radial_16_15086" cx="0" cy="0" r="1" gradientUnits="userSpaceOnUse" gradientTransform="translate(29.75 16.5) rotate(180) scale(28 9.06852)">
<stop stop-color="#0076D7"/>
<stop offset="0.859375" stop-color="#42A3FF" stop-opacity="0"/>
</radialGradient>
</defs>
</svg>
