<svg width="50" height="50" viewBox="0 0 50 50" fill="none" xmlns="http://www.w3.org/2000/svg">
<path d="M17.8207 10.3845L11.6668 10.3845C10.9588 10.3845 10.3848 10.9585 10.3848 11.6666V17.8204H11.9232V11.923L17.8207 11.923V10.3845Z" fill="#41A2FF"/>
<path d="M31.154 11.923L18.8463 11.923V10.3845L31.154 10.3845V11.923Z" fill="#41A2FF"/>
<path d="M32.1796 11.923L38.0771 11.923V17.8204H39.6155V11.6666C39.6155 10.9585 39.0415 10.3845 38.3335 10.3845L32.1796 10.3845V11.923Z" fill="#41A2FF"/>
<path d="M39.6155 18.8461H38.0771V19.8717H39.6155V18.8461Z" fill="#41A2FF"/>
<path d="M38.0771 30.1281V28.5897H39.6155V30.1281H38.0771Z" fill="#41A2FF"/>
<path d="M38.0771 31.1538H39.6155V38.8461C39.6155 39.5541 39.0415 40.1281 38.3335 40.1281H32.1796V38.5897H38.0771V31.1538Z" fill="#41A2FF"/>
<path d="M18.8463 38.5897H31.154V40.1281H18.8463V38.5897Z" fill="#41A2FF"/>
<path d="M17.8207 38.5897H11.9232V31.1538H10.3848V38.8461C10.3848 39.5541 10.9588 40.1281 11.6668 40.1281H17.8207V38.5897Z" fill="#41A2FF"/>
<path d="M10.3848 30.1281H11.9232V28.5897H10.3848V30.1281Z" fill="#41A2FF"/>
<path d="M11.9232 18.8461H10.3848V19.8717H11.9232V18.8461Z" fill="#41A2FF"/>
<rect x="5" y="18.8462" width="12.3077" height="11.2821" rx="2" fill="#006DD6"/>
<circle cx="7.05139" cy="24.4872" r="0.51282" fill="#70B9FF"/>
<circle cx="7.05139" cy="21.923" r="0.51282" fill="#70B9FF"/>
<circle cx="7.05139" cy="27.0514" r="0.51282" fill="#70B9FF"/>
<rect x="8.58984" y="21.4102" width="7.17949" height="1.02564" fill="#198FFF"/>
<rect x="8.58984" y="23.9744" width="7.17949" height="1.02564" fill="#198FFF"/>
<rect x="8.58984" y="26.5386" width="7.17949" height="1.02564" fill="#198FFF"/>
<rect x="32.6924" y="18.8462" width="12.3077" height="11.2821" rx="2" fill="#006DD6"/>
<circle cx="34.7438" cy="24.4872" r="0.51282" fill="#70B9FF"/>
<circle cx="34.7438" cy="21.923" r="0.51282" fill="#70B9FF"/>
<circle cx="34.7438" cy="27.0514" r="0.51282" fill="#70B9FF"/>
<rect x="36.2822" y="21.4102" width="7.17949" height="1.02564" fill="#198FFF"/>
<rect x="36.2822" y="23.9744" width="7.17949" height="1.02564" fill="#198FFF"/>
<rect x="36.2822" y="26.5386" width="7.17949" height="1.02564" fill="#198FFF"/>
<path d="M18.8462 6.02564C18.8462 5.45919 19.3054 5 19.8718 5H30.1282C30.6947 5 31.1539 5.4592 31.1539 6.02564V15.2564C31.1539 15.8229 30.6947 16.2821 30.1282 16.2821H19.8718C19.3054 16.2821 18.8462 15.8229 18.8462 15.2564V6.02564Z" fill="#198FFF"/>
<path d="M21.4104 10.641C21.4104 10.9242 21.1808 11.1538 20.8976 11.1538C20.6144 11.1538 20.3848 10.9242 20.3848 10.641C20.3848 10.3578 20.6144 10.1282 20.8976 10.1282C21.1808 10.1282 21.4104 10.3578 21.4104 10.641Z" fill="#70B9FF"/>
<path d="M21.4104 8.07703C21.4104 8.36025 21.1808 8.58985 20.8976 8.58985C20.6144 8.58985 20.3848 8.36025 20.3848 8.07703C20.3848 7.79381 20.6144 7.56421 20.8976 7.56421C21.1808 7.56421 21.4104 7.79381 21.4104 8.07703Z" fill="#70B9FF"/>
<path d="M21.4104 13.2052C21.4104 13.4884 21.1808 13.718 20.8976 13.718C20.6144 13.718 20.3848 13.4884 20.3848 13.2052C20.3848 12.922 20.6144 12.6924 20.8976 12.6924C21.1808 12.6924 21.4104 12.922 21.4104 13.2052Z" fill="#70B9FF"/>
<path d="M22.436 7.56421H29.6155V8.58985H22.436V7.56421Z" fill="#70B9FF"/>
<path d="M22.436 10.1282H29.6155V11.1538H22.436V10.1282Z" fill="#70B9FF"/>
<path d="M22.436 12.6924H29.6155V13.718H22.436V12.6924Z" fill="#70B9FF"/>
<rect x="18.8462" y="33.718" width="12.3077" height="11.2821" rx="2" fill="#198FFF"/>
<circle cx="20.8976" cy="39.359" r="0.51282" fill="#70B9FF"/>
<circle cx="20.8976" cy="36.7948" r="0.51282" fill="#70B9FF"/>
<circle cx="20.8976" cy="41.923" r="0.51282" fill="#70B9FF"/>
<rect x="22.436" y="36.282" width="7.17949" height="1.02564" fill="#70B9FF"/>
<rect x="22.436" y="38.8462" width="7.17949" height="1.02564" fill="#70B9FF"/>
<rect x="22.436" y="41.4102" width="7.17949" height="1.02564" fill="#70B9FF"/>
</svg>
