<svg width="50" height="50" viewBox="0 0 50 50" fill="none" xmlns="http://www.w3.org/2000/svg">
<path d="M2 11.9375C2 10.8674 2.8858 10 3.97849 10H46.0215C47.1142 10 48 10.8674 48 11.9375V39.0625C48 40.1326 47.1142 41 46.0215 41H3.9785C2.8858 41 2 40.1326 2 39.0625V11.9375Z" fill="#93CAFF"/>
<path fill-rule="evenodd" clip-rule="evenodd" d="M46.25 11.5H3.75V39.5H46.25V11.5ZM3.75 9.5C2.64543 9.5 1.75 10.3954 1.75 11.5V39.5C1.75 40.6046 2.64543 41.5 3.75 41.5H46.25C47.3546 41.5 48.25 40.6046 48.25 39.5V11.5C48.25 10.3954 47.3546 9.5 46.25 9.5H3.75Z" fill="#198FFF"/>
<path d="M18.2012 30.4766H16.3936V22.627L14 23.418V21.958L17.9971 20.5195H18.2012V30.4766ZM23.7129 20.25C24.1129 20.25 24.481 20.3004 24.8174 20.4004C25.1584 20.5004 25.4632 20.6574 25.7314 20.8711C26.0042 21.0802 26.2358 21.3531 26.4268 21.6895C26.6177 22.0213 26.7633 22.4214 26.8633 22.8896C26.9678 23.3534 27.0205 23.8898 27.0205 24.499V26.1699C27.0205 26.9336 26.9436 27.586 26.7891 28.127C26.6345 28.668 26.4111 29.1115 26.1201 29.457C25.8292 29.7979 25.4816 30.0502 25.0771 30.2139C24.6725 30.373 24.2221 30.4531 23.7266 30.4531C23.331 30.4531 22.9621 30.4028 22.6211 30.3027C22.2803 30.1982 21.9738 30.0388 21.7012 29.8252C21.4329 29.607 21.2004 29.3296 21.0049 28.9932C20.814 28.6568 20.6661 28.2543 20.5615 27.7861C20.4615 27.3179 20.4121 26.7791 20.4121 26.1699V24.499C20.4121 23.7354 20.4891 23.0853 20.6436 22.5488C20.8027 22.0123 21.0283 21.5734 21.3193 21.2324C21.6103 20.8914 21.9577 20.6429 22.3623 20.4883C22.7669 20.3292 23.2173 20.25 23.7129 20.25ZM31.6924 20.25C32.0924 20.25 32.4605 20.3004 32.7969 20.4004C33.1379 20.5004 33.4427 20.6574 33.7109 20.8711C33.9837 21.0802 34.2153 21.3531 34.4062 21.6895C34.5972 22.0213 34.7428 22.4214 34.8428 22.8896C34.9473 23.3534 35 23.8898 35 24.499V26.1699C35 26.9336 34.9231 27.586 34.7686 28.127C34.614 28.668 34.3906 29.1115 34.0996 29.457C33.8087 29.7979 33.4611 30.0502 33.0566 30.2139C32.652 30.373 32.2016 30.4531 31.7061 30.4531C31.3105 30.4531 30.9416 30.4028 30.6006 30.3027C30.2598 30.1982 29.9533 30.0388 29.6807 29.8252C29.4124 29.607 29.1799 29.3296 28.9844 28.9932C28.7935 28.6568 28.6456 28.2543 28.541 27.7861C28.441 27.3179 28.3916 26.7791 28.3916 26.1699V24.499C28.3916 23.7354 28.4685 23.0853 28.623 22.5488C28.7822 22.0123 29.0078 21.5734 29.2988 21.2324C29.5898 20.8914 29.9371 20.6429 30.3418 20.4883C30.7464 20.3292 31.1968 20.25 31.6924 20.25ZM23.7129 21.6689C23.4765 21.6689 23.2645 21.716 23.0781 21.8115C22.8918 21.9025 22.7347 22.048 22.6074 22.248C22.4802 22.448 22.3826 22.7141 22.3145 23.0459C22.2508 23.3733 22.2188 23.7742 22.2188 24.2471V26.415C22.2188 26.797 22.2394 27.1315 22.2803 27.418C22.3257 27.7044 22.3899 27.9497 22.4717 28.1543C22.5581 28.3589 22.6601 28.5273 22.7783 28.6592C22.901 28.7864 23.0421 28.8817 23.2012 28.9453C23.3603 29.0044 23.5356 29.0342 23.7266 29.0342C23.9674 29.0342 24.1785 28.9861 24.3604 28.8906C24.5466 28.7952 24.7038 28.6458 24.8311 28.4414C24.9584 28.2323 25.0535 27.9608 25.1172 27.6289C25.1853 27.2925 25.2197 26.8877 25.2197 26.415V24.2471C25.2197 23.8652 25.1968 23.5329 25.1514 23.251C25.1105 22.9647 25.0495 22.7215 24.9678 22.5215C24.886 22.3216 24.7838 22.1598 24.6611 22.0371C24.5384 21.9099 24.3973 21.8159 24.2383 21.7568C24.0792 21.6977 23.9038 21.669 23.7129 21.6689ZM31.6924 21.6689C31.456 21.6689 31.244 21.716 31.0576 21.8115C30.8713 21.9025 30.7142 22.0481 30.5869 22.248C30.4597 22.448 30.3621 22.7141 30.2939 23.0459C30.2303 23.3733 30.1982 23.7742 30.1982 24.2471V26.415C30.1982 26.797 30.2188 27.1315 30.2598 27.418C30.3052 27.7044 30.3694 27.9497 30.4512 28.1543C30.5375 28.3589 30.6396 28.5273 30.7578 28.6592C30.8805 28.7864 31.0216 28.8817 31.1807 28.9453C31.3398 29.0044 31.5151 29.0342 31.7061 29.0342C31.9469 29.0342 32.158 28.9861 32.3398 28.8906C32.5261 28.7952 32.6833 28.6458 32.8105 28.4414C32.9379 28.2323 33.034 27.9608 33.0977 27.6289C33.1658 27.2926 33.1992 26.8877 33.1992 26.415V24.2471C33.1992 23.8652 33.1763 23.5329 33.1309 23.251C33.09 22.9647 33.029 22.7215 32.9473 22.5215C32.8655 22.3216 32.7632 22.1598 32.6406 22.0371C32.5179 21.9099 32.3768 21.8159 32.2178 21.7568C32.0587 21.6977 31.8833 21.669 31.6924 21.6689Z" fill="white"/>
</svg>
