<svg width="376" height="200" viewBox="0 0 376 200" fill="none" xmlns="http://www.w3.org/2000/svg">
<g clip-path="url(#clip0_61_5652)">
<rect width="376" height="200" rx="4" fill="#EDF0F2"/>
<g clip-path="url(#clip1_61_5652)">
<rect width="376" height="100" fill="#EDF0F2"/>
<rect x="12" y="25" width="163" height="98" rx="2" fill="white"/>
<path d="M34.1484 39.0312V39.5547C34.1484 40.0898 34.1484 40.7188 33.9844 41.5391H34.9531V42.0391H28.6328V41.5391H33.3672C33.4336 41.207 33.4766 40.9102 33.5 40.6406L29.3438 40.8203L29.2656 40.3281L33.5312 40.1953C33.5391 39.9727 33.5391 39.7578 33.5391 39.5547V39.5312H29.4297V39.0312H34.1484ZM34.2031 42.7109V44.3125H30V45.0469H34.4453V45.5391H29.3906V43.8438H33.5938V43.1875H29.375V42.7109H34.2031ZM41.2891 38.6875V45.6484H40.6797V41.875H39.3281V41.3594H40.6797V38.6875H41.2891ZM38.9062 39.3359V41.7656H36.4141V43.4531C37.6094 43.4531 38.4766 43.418 39.4922 43.2266L39.5391 43.7422C38.4922 43.9297 37.5938 43.9688 36.3359 43.9766H35.8047V41.2578H38.3125V39.8438H35.7812V39.3359H38.9062ZM45.9141 39.7109C45.9141 40.8984 47.2734 41.9609 48.4844 42.1875L48.2031 42.7031C47.1562 42.4609 46.0508 41.7148 45.6016 40.6875C45.1523 41.7109 44.0508 42.457 43 42.7031L42.7188 42.1875C43.9219 41.9531 45.2734 40.9062 45.2734 39.7109V39.1797H45.9141V39.7109ZM48.8125 44.1797V44.6875H42.4531V44.1797H48.8125ZM50.1016 45.0469C49.8281 45.0469 49.5938 44.8203 49.6016 44.5391C49.5938 44.2656 49.8281 44.0391 50.1016 44.0391C50.375 44.0391 50.6016 44.2656 50.6016 44.5391C50.6016 44.8203 50.375 45.0469 50.1016 45.0469ZM52.1328 45.0469C51.8594 45.0469 51.625 44.8203 51.6328 44.5391C51.625 44.2656 51.8594 44.0391 52.1328 44.0391C52.4062 44.0391 52.6328 44.2656 52.6328 44.5391C52.6328 44.8203 52.4062 45.0469 52.1328 45.0469ZM54.1641 45.0469C53.8906 45.0469 53.6562 44.8203 53.6641 44.5391C53.6562 44.2656 53.8906 44.0391 54.1641 44.0391C54.4375 44.0391 54.6641 44.2656 54.6641 44.5391C54.6641 44.8203 54.4375 45.0469 54.1641 45.0469Z" fill="#626872"/>
<rect x="64" y="37" width="99" height="10" rx="1" fill="#5E8EED"/>
<path d="M34.1484 55.0312V55.5547C34.1484 56.0898 34.1484 56.7188 33.9844 57.5391H34.9531V58.0391H28.6328V57.5391H33.3672C33.4336 57.207 33.4766 56.9102 33.5 56.6406L29.3438 56.8203L29.2656 56.3281L33.5312 56.1953C33.5391 55.9727 33.5391 55.7578 33.5391 55.5547V55.5312H29.4297V55.0312H34.1484ZM34.2031 58.7109V60.3125H30V61.0469H34.4453V61.5391H29.3906V59.8438H33.5938V59.1875H29.375V58.7109H34.2031ZM41.2891 54.6875V61.6484H40.6797V57.875H39.3281V57.3594H40.6797V54.6875H41.2891ZM38.9062 55.3359V57.7656H36.4141V59.4531C37.6094 59.4531 38.4766 59.418 39.4922 59.2266L39.5391 59.7422C38.4922 59.9297 37.5938 59.9688 36.3359 59.9766H35.8047V57.2578H38.3125V55.8438H35.7812V55.3359H38.9062ZM45.9141 55.7109C45.9141 56.8984 47.2734 57.9609 48.4844 58.1875L48.2031 58.7031C47.1562 58.4609 46.0508 57.7148 45.6016 56.6875C45.1523 57.7109 44.0508 58.457 43 58.7031L42.7188 58.1875C43.9219 57.9531 45.2734 56.9062 45.2734 55.7109V55.1797H45.9141V55.7109ZM48.8125 60.1797V60.6875H42.4531V60.1797H48.8125ZM50.1016 61.0469C49.8281 61.0469 49.5938 60.8203 49.6016 60.5391C49.5938 60.2656 49.8281 60.0391 50.1016 60.0391C50.375 60.0391 50.6016 60.2656 50.6016 60.5391C50.6016 60.8203 50.375 61.0469 50.1016 61.0469ZM52.1328 61.0469C51.8594 61.0469 51.625 60.8203 51.6328 60.5391C51.625 60.2656 51.8594 60.0391 52.1328 60.0391C52.4062 60.0391 52.6328 60.2656 52.6328 60.5391C52.6328 60.8203 52.4062 61.0469 52.1328 61.0469ZM54.1641 61.0469C53.8906 61.0469 53.6562 60.8203 53.6641 60.5391C53.6562 60.2656 53.8906 60.0391 54.1641 60.0391C54.4375 60.0391 54.6641 60.2656 54.6641 60.5391C54.6641 60.8203 54.4375 61.0469 54.1641 61.0469Z" fill="#626872"/>
<rect x="64" y="53" width="53" height="10" rx="1" fill="#BACEF7"/>
<path d="M34.1484 71.0312V71.5547C34.1484 72.0898 34.1484 72.7188 33.9844 73.5391H34.9531V74.0391H28.6328V73.5391H33.3672C33.4336 73.207 33.4766 72.9102 33.5 72.6406L29.3438 72.8203L29.2656 72.3281L33.5312 72.1953C33.5391 71.9727 33.5391 71.7578 33.5391 71.5547V71.5312H29.4297V71.0312H34.1484ZM34.2031 74.7109V76.3125H30V77.0469H34.4453V77.5391H29.3906V75.8438H33.5938V75.1875H29.375V74.7109H34.2031ZM41.2891 70.6875V77.6484H40.6797V73.875H39.3281V73.3594H40.6797V70.6875H41.2891ZM38.9062 71.3359V73.7656H36.4141V75.4531C37.6094 75.4531 38.4766 75.418 39.4922 75.2266L39.5391 75.7422C38.4922 75.9297 37.5938 75.9688 36.3359 75.9766H35.8047V73.2578H38.3125V71.8438H35.7812V71.3359H38.9062ZM45.9141 71.7109C45.9141 72.8984 47.2734 73.9609 48.4844 74.1875L48.2031 74.7031C47.1562 74.4609 46.0508 73.7148 45.6016 72.6875C45.1523 73.7109 44.0508 74.457 43 74.7031L42.7188 74.1875C43.9219 73.9531 45.2734 72.9062 45.2734 71.7109V71.1797H45.9141V71.7109ZM48.8125 76.1797V76.6875H42.4531V76.1797H48.8125ZM50.1016 77.0469C49.8281 77.0469 49.5938 76.8203 49.6016 76.5391C49.5938 76.2656 49.8281 76.0391 50.1016 76.0391C50.375 76.0391 50.6016 76.2656 50.6016 76.5391C50.6016 76.8203 50.375 77.0469 50.1016 77.0469ZM52.1328 77.0469C51.8594 77.0469 51.625 76.8203 51.6328 76.5391C51.625 76.2656 51.8594 76.0391 52.1328 76.0391C52.4062 76.0391 52.6328 76.2656 52.6328 76.5391C52.6328 76.8203 52.4062 77.0469 52.1328 77.0469ZM54.1641 77.0469C53.8906 77.0469 53.6562 76.8203 53.6641 76.5391C53.6562 76.2656 53.8906 76.0391 54.1641 76.0391C54.4375 76.0391 54.6641 76.2656 54.6641 76.5391C54.6641 76.8203 54.4375 77.0469 54.1641 77.0469Z" fill="#626872"/>
<rect x="64" y="69" width="32" height="10" rx="1" fill="#5E8EED"/>
<path d="M34.1484 87.0312V87.5547C34.1484 88.0898 34.1484 88.7188 33.9844 89.5391H34.9531V90.0391H28.6328V89.5391H33.3672C33.4336 89.207 33.4766 88.9102 33.5 88.6406L29.3438 88.8203L29.2656 88.3281L33.5312 88.1953C33.5391 87.9727 33.5391 87.7578 33.5391 87.5547V87.5312H29.4297V87.0312H34.1484ZM34.2031 90.7109V92.3125H30V93.0469H34.4453V93.5391H29.3906V91.8438H33.5938V91.1875H29.375V90.7109H34.2031ZM41.2891 86.6875V93.6484H40.6797V89.875H39.3281V89.3594H40.6797V86.6875H41.2891ZM38.9062 87.3359V89.7656H36.4141V91.4531C37.6094 91.4531 38.4766 91.418 39.4922 91.2266L39.5391 91.7422C38.4922 91.9297 37.5938 91.9688 36.3359 91.9766H35.8047V89.2578H38.3125V87.8438H35.7812V87.3359H38.9062ZM45.9141 87.7109C45.9141 88.8984 47.2734 89.9609 48.4844 90.1875L48.2031 90.7031C47.1562 90.4609 46.0508 89.7148 45.6016 88.6875C45.1523 89.7109 44.0508 90.457 43 90.7031L42.7188 90.1875C43.9219 89.9531 45.2734 88.9062 45.2734 87.7109V87.1797H45.9141V87.7109ZM48.8125 92.1797V92.6875H42.4531V92.1797H48.8125ZM50.1016 93.0469C49.8281 93.0469 49.5938 92.8203 49.6016 92.5391C49.5938 92.2656 49.8281 92.0391 50.1016 92.0391C50.375 92.0391 50.6016 92.2656 50.6016 92.5391C50.6016 92.8203 50.375 93.0469 50.1016 93.0469ZM52.1328 93.0469C51.8594 93.0469 51.625 92.8203 51.6328 92.5391C51.625 92.2656 51.8594 92.0391 52.1328 92.0391C52.4062 92.0391 52.6328 92.2656 52.6328 92.5391C52.6328 92.8203 52.4062 93.0469 52.1328 93.0469ZM54.1641 93.0469C53.8906 93.0469 53.6562 92.8203 53.6641 92.5391C53.6562 92.2656 53.8906 92.0391 54.1641 92.0391C54.4375 92.0391 54.6641 92.2656 54.6641 92.5391C54.6641 92.8203 54.4375 93.0469 54.1641 93.0469Z" fill="#626872"/>
<rect x="64" y="85" width="7" height="10" rx="1" fill="#BACEF7"/>
<g filter="url(#filter0_d_61_5652)">
<path d="M143.923 56.0296C144.098 56.4505 143.93 58.0447 143 58.4142C142.07 58.7837 140.882 58.4142 140.882 58.4142L138.726 54.1024L135 57.8284V41L146.414 52.4142H142.162C142.37 52.8144 143.7 55.4948 143.923 56.0296Z" fill="white"/>
<path fill-rule="evenodd" clip-rule="evenodd" d="M136 43.4143V55.4143L139 52.4143L141.5 57.4143C141.5 57.4143 142.176 57.6301 142.5 57.4143C142.824 57.1985 143.146 56.7639 143 56.4143C142.312 54.7639 140.5 51.4143 140.5 51.4143H144L136 43.4143Z" fill="black"/>
</g>
<g filter="url(#filter1_d_61_5652)">
<g clip-path="url(#clip2_61_5652)">
<path d="M156 16C156 14.8954 156.895 14 158 14H394C395.105 14 396 14.8954 396 16V83C396 84.1046 395.105 85 394 85H158C156.895 85 156 84.1046 156 83V16Z" fill="white"/>
<path d="M169.428 24.6426L169.756 25.5566C169.4 25.6855 169.158 25.9141 169.029 26.2422C168.9 26.5664 168.836 26.9414 168.836 27.3672V28.5625C168.836 28.957 168.748 29.3145 168.572 29.6348C168.4 29.9551 168.127 30.2109 167.752 30.4023C167.377 30.5898 166.887 30.6836 166.281 30.6836V29.793C166.652 29.793 166.918 29.6816 167.078 29.459C167.242 29.2363 167.324 28.9375 167.324 28.5625V27.3672C167.324 26.957 167.387 26.5742 167.512 26.2188C167.641 25.8594 167.857 25.5449 168.162 25.2754C168.471 25.002 168.893 24.791 169.428 24.6426ZM169.756 35.2012L169.428 36.1211C168.893 35.9688 168.471 35.7559 168.162 35.4824C167.857 35.2129 167.641 34.8984 167.512 34.5391C167.387 34.1836 167.324 33.8008 167.324 33.3906V32.1953C167.324 31.9453 167.287 31.7285 167.213 31.5449C167.143 31.3613 167.031 31.2207 166.879 31.123C166.727 31.0215 166.527 30.9707 166.281 30.9707V30.0742C166.887 30.0742 167.377 30.1699 167.752 30.3613C168.127 30.5488 168.4 30.8027 168.572 31.123C168.748 31.4434 168.836 31.8008 168.836 32.1953V33.3906C168.836 33.6758 168.863 33.9395 168.918 34.1816C168.977 34.4238 169.07 34.6328 169.199 34.8086C169.332 34.9844 169.518 35.1152 169.756 35.2012ZM171.689 24.34H178.721V25.576H171.689V24.34ZM177.761 24.34H179.333V25.312C179.333 25.8 179.321 26.312 179.297 26.848C179.281 27.384 179.201 27.984 179.057 28.648L177.473 28.492C177.625 27.852 177.709 27.284 177.725 26.788C177.749 26.292 177.761 25.8 177.761 25.312V24.34ZM178.253 26.2V27.292L171.557 27.568L171.365 26.344L178.253 26.2ZM170.477 28.228H180.473V29.476H170.477V28.228ZM171.545 30.124H179.405V33.076H173.153V34.264H171.569V31.936H177.821V31.336H171.545V30.124ZM171.569 33.736H179.777V34.948H171.569V33.736ZM189.196 23.932H190.78V35.08H189.196V23.932ZM187.456 27.94H189.52V29.224H187.456V27.94ZM181.864 31.204H182.776C183.384 31.204 183.952 31.196 184.48 31.18C185.016 31.164 185.54 31.136 186.052 31.096C186.564 31.048 187.088 30.98 187.624 30.892L187.768 32.188C187.216 32.276 186.676 32.344 186.148 32.392C185.62 32.44 185.08 32.472 184.528 32.488C183.984 32.504 183.4 32.512 182.776 32.512H181.864V31.204ZM181.852 24.88H186.856V29.068H183.448V31.588H181.864V27.808H185.284V26.152H181.852V24.88ZM196.659 24.592H198.039V25.396C198.039 25.876 197.971 26.344 197.835 26.8C197.707 27.248 197.515 27.672 197.259 28.072C197.003 28.472 196.687 28.836 196.311 29.164C195.943 29.484 195.519 29.76 195.039 29.992C194.559 30.224 194.031 30.396 193.455 30.508L192.771 29.176C193.267 29.088 193.719 28.956 194.127 28.78C194.543 28.596 194.907 28.376 195.219 28.12C195.531 27.864 195.795 27.588 196.011 27.292C196.227 26.988 196.387 26.676 196.491 26.356C196.603 26.028 196.659 25.708 196.659 25.396V24.592ZM196.971 24.592H198.363V25.396C198.363 25.716 198.415 26.04 198.519 26.368C198.631 26.696 198.791 27.012 198.999 27.316C199.215 27.612 199.479 27.884 199.791 28.132C200.103 28.38 200.463 28.596 200.871 28.78C201.279 28.956 201.739 29.088 202.251 29.176L201.567 30.508C200.991 30.396 200.463 30.224 199.983 29.992C199.503 29.76 199.075 29.484 198.699 29.164C198.331 28.844 198.015 28.484 197.751 28.084C197.495 27.684 197.299 27.256 197.163 26.8C197.035 26.344 196.971 25.876 196.971 25.396V24.592ZM192.531 32.404H202.599V33.712H192.531V32.404ZM211.298 23.932H212.894V35.08H211.298V23.932ZM209.39 27.856H211.49V29.152H209.39V27.856ZM204.062 31.288H204.962C205.578 31.288 206.146 31.28 206.666 31.264C207.194 31.248 207.706 31.22 208.202 31.18C208.698 31.14 209.206 31.084 209.726 31.012L209.882 32.272C209.346 32.36 208.818 32.424 208.298 32.464C207.786 32.504 207.258 32.532 206.714 32.548C206.17 32.564 205.586 32.572 204.962 32.572H204.062V31.288ZM204.062 24.868H209.21V26.164H205.658V31.684H204.062V24.868ZM205.286 27.964H208.838V29.212H205.286V27.964ZM219.973 25.552H222.805V26.824H219.973V25.552ZM219.973 27.772H222.853V29.044H219.973V27.772ZM222.301 23.956H223.909V30.46H222.301V23.956ZM215.053 24.748H220.309V29.86H215.053V24.748ZM218.749 26.008H216.625V28.612H218.749V26.008ZM220.141 30.748C221.317 30.748 222.245 30.94 222.925 31.324C223.605 31.7 223.945 32.224 223.945 32.896C223.945 33.584 223.605 34.116 222.925 34.492C222.245 34.876 221.317 35.068 220.141 35.068C218.965 35.068 218.037 34.876 217.357 34.492C216.677 34.116 216.337 33.584 216.337 32.896C216.337 32.224 216.677 31.7 217.357 31.324C218.037 30.94 218.965 30.748 220.141 30.748ZM220.141 31.972C219.661 31.972 219.257 32.004 218.929 32.068C218.601 32.132 218.349 32.236 218.173 32.38C218.005 32.516 217.921 32.692 217.921 32.908C217.921 33.116 218.005 33.292 218.173 33.436C218.349 33.572 218.601 33.676 218.929 33.748C219.257 33.812 219.661 33.844 220.141 33.844C220.621 33.844 221.025 33.812 221.353 33.748C221.681 33.676 221.929 33.572 222.097 33.436C222.265 33.292 222.349 33.116 222.349 32.908C222.349 32.692 222.265 32.516 222.097 32.38C221.929 32.236 221.681 32.132 221.353 32.068C221.025 32.004 220.621 31.972 220.141 31.972ZM225.355 25.5566L225.684 24.6426C226.223 24.791 226.645 25.002 226.949 25.2754C227.254 25.5449 227.469 25.8594 227.594 26.2188C227.723 26.5742 227.787 26.957 227.787 27.3672V28.5625C227.787 28.8125 227.822 29.0293 227.893 29.2129C227.963 29.3965 228.074 29.5391 228.227 29.6406C228.383 29.7422 228.584 29.793 228.83 29.793V30.6602C228.225 30.6602 227.734 30.5684 227.359 30.3848C226.984 30.2012 226.709 29.9512 226.533 29.6348C226.357 29.3145 226.27 28.957 226.27 28.5625V27.3672C226.27 27.082 226.242 26.8184 226.188 26.5762C226.137 26.334 226.045 26.125 225.912 25.9492C225.779 25.7734 225.594 25.6426 225.355 25.5566ZM225.684 36.1211L225.355 35.2012C225.594 35.1152 225.779 34.9844 225.912 34.8086C226.045 34.6328 226.137 34.4238 226.188 34.1816C226.242 33.9395 226.27 33.6758 226.27 33.3906V32.1953C226.27 31.8008 226.357 31.4453 226.533 31.1289C226.709 30.8125 226.984 30.5625 227.359 30.3789C227.734 30.1914 228.225 30.0977 228.83 30.0977V30.9707C228.463 30.9707 228.197 31.082 228.033 31.3047C227.869 31.5273 227.787 31.8242 227.787 32.1953V33.3906C227.787 33.8008 227.723 34.1836 227.594 34.5391C227.469 34.8984 227.254 35.2129 226.949 35.4824C226.645 35.7559 226.223 35.9688 225.684 36.1211ZM229.75 28.3516C229.75 28.1016 229.836 27.8926 230.008 27.7246C230.184 27.5566 230.416 27.4727 230.705 27.4727C230.994 27.4727 231.225 27.5566 231.396 27.7246C231.572 27.8926 231.66 28.1016 231.66 28.3516C231.66 28.6016 231.572 28.8105 231.396 28.9785C231.225 29.1465 230.994 29.2305 230.705 29.2305C230.416 29.2305 230.184 29.1465 230.008 28.9785C229.836 28.8105 229.75 28.6016 229.75 28.3516ZM231.496 32.5762L231.49 33.707C231.49 34.1406 231.381 34.5781 231.162 35.0195C230.947 35.4609 230.674 35.8223 230.342 36.1035L229.463 35.6523C229.561 35.4727 229.656 35.293 229.75 35.1133C229.844 34.9336 229.922 34.7363 229.984 34.5215C230.047 34.3066 230.078 34.0625 230.078 33.7891V32.5762H231.496Z" fill="#282C32"/>
<path d="M235.709 24.6426L236.037 25.5566C235.682 25.6855 235.439 25.9141 235.311 26.2422C235.182 26.5664 235.117 26.9414 235.117 27.3672V28.5625C235.117 28.957 235.029 29.3145 234.854 29.6348C234.682 29.9551 234.408 30.2109 234.033 30.4023C233.658 30.5898 233.168 30.6836 232.562 30.6836V29.793C232.934 29.793 233.199 29.6816 233.359 29.459C233.523 29.2363 233.605 28.9375 233.605 28.5625V27.3672C233.605 26.957 233.668 26.5742 233.793 26.2188C233.922 25.8594 234.139 25.5449 234.443 25.2754C234.752 25.002 235.174 24.791 235.709 24.6426ZM236.037 35.2012L235.709 36.1211C235.174 35.9688 234.752 35.7559 234.443 35.4824C234.139 35.2129 233.922 34.8984 233.793 34.5391C233.668 34.1836 233.605 33.8008 233.605 33.3906V32.1953C233.605 31.9453 233.568 31.7285 233.494 31.5449C233.424 31.3613 233.312 31.2207 233.16 31.123C233.008 31.0215 232.809 30.9707 232.562 30.9707V30.0742C233.168 30.0742 233.658 30.1699 234.033 30.3613C234.408 30.5488 234.682 30.8027 234.854 31.123C235.029 31.4434 235.117 31.8008 235.117 32.1953V33.3906C235.117 33.6758 235.145 33.9395 235.199 34.1816C235.258 34.4238 235.352 34.6328 235.48 34.8086C235.613 34.9844 235.799 35.1152 236.037 35.2012ZM237.862 28.732H245.734V30.004H237.862V28.732ZM236.734 32.536H246.802V33.82H236.734V32.536ZM240.958 29.488H242.554V32.896H240.958V29.488ZM237.862 24.796H239.458V29.284H237.862V24.796ZM248.949 29.08H256.761V30.34H248.949V29.08ZM247.773 32.428H257.841V33.724H247.773V32.428ZM248.949 24.856H256.677V26.152H250.533V29.608H248.949V24.856ZM264.176 25.552H267.008V26.824H264.176V25.552ZM264.176 27.772H267.056V29.044H264.176V27.772ZM266.504 23.956H268.112V30.46H266.504V23.956ZM259.256 24.748H264.512V29.86H259.256V24.748ZM262.952 26.008H260.828V28.612H262.952V26.008ZM264.344 30.748C265.52 30.748 266.448 30.94 267.128 31.324C267.808 31.7 268.148 32.224 268.148 32.896C268.148 33.584 267.808 34.116 267.128 34.492C266.448 34.876 265.52 35.068 264.344 35.068C263.168 35.068 262.24 34.876 261.56 34.492C260.88 34.116 260.54 33.584 260.54 32.896C260.54 32.224 260.88 31.7 261.56 31.324C262.24 30.94 263.168 30.748 264.344 30.748ZM264.344 31.972C263.864 31.972 263.46 32.004 263.132 32.068C262.804 32.132 262.552 32.236 262.376 32.38C262.208 32.516 262.124 32.692 262.124 32.908C262.124 33.116 262.208 33.292 262.376 33.436C262.552 33.572 262.804 33.676 263.132 33.748C263.46 33.812 263.864 33.844 264.344 33.844C264.824 33.844 265.228 33.812 265.556 33.748C265.884 33.676 266.132 33.572 266.3 33.436C266.468 33.292 266.552 33.116 266.552 32.908C266.552 32.692 266.468 32.516 266.3 32.38C266.132 32.236 265.884 32.132 265.556 32.068C265.228 32.004 264.824 31.972 264.344 31.972ZM269.559 25.5566L269.887 24.6426C270.426 24.791 270.848 25.002 271.152 25.2754C271.457 25.5449 271.672 25.8594 271.797 26.2188C271.926 26.5742 271.99 26.957 271.99 27.3672V28.5625C271.99 28.8125 272.025 29.0293 272.096 29.2129C272.166 29.3965 272.277 29.5391 272.43 29.6406C272.586 29.7422 272.787 29.793 273.033 29.793V30.6602C272.428 30.6602 271.938 30.5684 271.562 30.3848C271.188 30.2012 270.912 29.9512 270.736 29.6348C270.561 29.3145 270.473 28.957 270.473 28.5625V27.3672C270.473 27.082 270.445 26.8184 270.391 26.5762C270.34 26.334 270.248 26.125 270.115 25.9492C269.982 25.7734 269.797 25.6426 269.559 25.5566ZM269.887 36.1211L269.559 35.2012C269.797 35.1152 269.982 34.9844 270.115 34.8086C270.248 34.6328 270.34 34.4238 270.391 34.1816C270.445 33.9395 270.473 33.6758 270.473 33.3906V32.1953C270.473 31.8008 270.561 31.4453 270.736 31.1289C270.912 30.8125 271.188 30.5625 271.562 30.3789C271.938 30.1914 272.428 30.0977 273.033 30.0977V30.9707C272.666 30.9707 272.4 31.082 272.236 31.3047C272.072 31.5273 271.99 31.8242 271.99 32.1953V33.3906C271.99 33.8008 271.926 34.1836 271.797 34.5391C271.672 34.8984 271.457 35.2129 271.152 35.4824C270.848 35.7559 270.426 35.9688 269.887 36.1211Z" fill="#E61A87"/>
<rect x="156" y="46" width="240" height="1" fill="#C9CDD2"/>
<circle cx="172" cy="65" r="4" fill="#5E8EED"/>
<path d="M180.312 65.0732C181.16 65.0732 181.45 64.751 181.45 63.9238V62.4199C181.45 61.0127 181.955 60.3896 183.459 60.3896V61.1523C182.578 61.1523 182.299 61.5498 182.299 62.4307V64.2246C182.299 64.8369 182.1 65.3042 181.225 65.4814V65.5996C182.1 65.7715 182.299 66.2334 182.299 66.8564V68.6396C182.299 69.5205 182.578 69.918 183.459 69.918V70.6914C181.955 70.6914 181.45 70.0684 181.45 68.6504V67.1572C181.45 66.3301 181.16 65.9971 180.312 65.9971V65.0732ZM191.73 60.293V61.0127C191.73 61.7485 191.73 62.6133 191.505 63.7412H192.837V64.4287H184.146V63.7412H190.656C190.748 63.2847 190.807 62.8765 190.839 62.5059L185.124 62.7529L185.017 62.0762L190.882 61.8936C190.893 61.5874 190.893 61.292 190.893 61.0127V60.9805H185.242V60.293H191.73ZM191.806 65.3525V67.5547H186.026V68.5645H192.139V69.2412H185.188V66.9102H190.968V66.0078H185.167V65.3525H191.806ZM201.549 59.8203V69.3916H200.711V64.2031H198.853V63.4941H200.711V59.8203H201.549ZM198.272 60.7119V64.0527H194.846V66.373C196.489 66.373 197.682 66.3247 199.078 66.0615L199.143 66.7705C197.703 67.0283 196.468 67.082 194.738 67.0928H194.008V63.3545H197.456V61.4102H193.976V60.7119H198.272ZM207.908 61.2275C207.908 62.8604 209.777 64.3213 211.442 64.6328L211.056 65.3418C209.616 65.0088 208.096 63.9829 207.479 62.5703C206.861 63.9775 205.346 65.0034 203.901 65.3418L203.515 64.6328C205.169 64.3105 207.027 62.8711 207.027 61.2275V60.4971H207.908V61.2275ZM211.894 67.3721V68.0703H203.149V67.3721H211.894ZM220.573 59.8203V69.3916H219.735V64.1279H217.716V63.4297H219.735V59.8203H220.573ZM217.555 60.7012V61.3994H213.945V63.3867H217.136V64.0742H213.945V66.3838C215.702 66.3838 216.819 66.3247 218.135 66.0938L218.231 66.792C216.846 67.0176 215.675 67.082 213.827 67.082H213.097V60.7012H217.555ZM230.08 59.8203V65.4814H229.231V63.9775H226.997V64.7939H222.614V60.5508H226.997V61.3779H229.231V59.8203H230.08ZM223.452 61.2383V64.1064H226.17V61.2383H223.452ZM226.911 65.7607C228.898 65.7607 230.112 66.416 230.112 67.5654C230.112 68.7041 228.898 69.3486 226.911 69.3486C224.924 69.3486 223.71 68.7041 223.71 67.5654C223.71 66.416 224.924 65.7607 226.911 65.7607ZM226.911 66.416C225.45 66.4268 224.537 66.8457 224.548 67.5654C224.537 68.2529 225.45 68.6826 226.911 68.6826C228.372 68.6826 229.274 68.2529 229.274 67.5654C229.274 66.8457 228.372 66.4268 226.911 66.416ZM226.997 63.2686H229.231V62.0762H226.997V63.2686ZM234.721 65.9971C233.872 65.9971 233.582 66.3301 233.582 67.1572V68.6504C233.582 70.0684 233.077 70.6914 231.573 70.6914V69.918C232.454 69.918 232.733 69.5205 232.733 68.6396V66.8564C232.733 66.2334 232.932 65.7715 233.808 65.5996V65.4814C232.932 65.3042 232.733 64.8369 232.733 64.2246V62.4307C232.733 61.5498 232.454 61.1523 231.573 61.1523V60.3896C233.077 60.3896 233.582 61.0127 233.582 62.4199V63.9238C233.582 64.751 233.872 65.0732 234.721 65.0732V65.9971ZM236.987 67.7803L236.149 70.7021H235.354L235.945 67.7803H236.987ZM236.429 64.2354C236.053 64.2354 235.73 63.9238 235.741 63.5371C235.73 63.1611 236.053 62.8496 236.429 62.8496C236.805 62.8496 237.116 63.1611 237.116 63.5371C237.116 63.9238 236.805 64.2354 236.429 64.2354ZM238.137 65.0732C238.985 65.0732 239.275 64.751 239.275 63.9238V62.4199C239.275 61.0127 239.78 60.3896 241.284 60.3896V61.1523C240.403 61.1523 240.124 61.5498 240.124 62.4307V64.2246C240.124 64.8369 239.925 65.3042 239.05 65.4814V65.5996C239.925 65.7715 240.124 66.2334 240.124 66.8564V68.6396C240.124 69.5205 240.403 69.918 241.284 69.918V70.6914C239.78 70.6914 239.275 70.0684 239.275 68.6504V67.1572C239.275 66.3301 238.985 65.9971 238.137 65.9971V65.0732ZM249.695 64.1709V64.8799H246.73V67.4258H250.705V68.124H241.961V67.4258H245.893V64.8799H243.035V60.6367H243.895V64.1709H249.695ZM259.181 64.418V65.1162H252.585V60.7119H259.084V61.4102H253.423V64.418H259.181ZM260.212 67.3613V68.0703H251.468V67.3613H260.212ZM268.892 59.8203V65.4814H268.043V63.9775H265.809V64.7939H261.426V60.5508H265.809V61.3779H268.043V59.8203H268.892ZM262.264 61.2383V64.1064H264.981V61.2383H262.264ZM265.723 65.7607C267.71 65.7607 268.924 66.416 268.924 67.5654C268.924 68.7041 267.71 69.3486 265.723 69.3486C263.735 69.3486 262.521 68.7041 262.521 67.5654C262.521 66.416 263.735 65.7607 265.723 65.7607ZM265.723 66.416C264.262 66.4268 263.349 66.8457 263.359 67.5654C263.349 68.2529 264.262 68.6826 265.723 68.6826C267.184 68.6826 268.086 68.2529 268.086 67.5654C268.086 66.8457 267.184 66.4268 265.723 66.416ZM265.809 63.2686H268.043V62.0762H265.809V63.2686ZM273.532 65.9971C272.684 65.9971 272.394 66.3301 272.394 67.1572V68.6504C272.394 70.0684 271.889 70.6914 270.385 70.6914V69.918C271.266 69.918 271.545 69.5205 271.545 68.6396V66.8564C271.545 66.2334 271.744 65.7715 272.619 65.5996V65.4814C271.744 65.3042 271.545 64.8369 271.545 64.2246V62.4307C271.545 61.5498 271.266 61.1523 270.385 61.1523V60.3896C271.889 60.3896 272.394 61.0127 272.394 62.4199V63.9238C272.394 64.751 272.684 65.0732 273.532 65.0732V65.9971Z" fill="#282C32"/>
<path d="M360.722 68.103L362.312 63.1885H363.327L361.237 69H360.571L360.722 68.103ZM359.395 63.1885L361.033 68.1299L361.146 69H360.48L358.375 63.1885H359.395ZM367.624 68.0063V65.0146C367.624 64.7855 367.577 64.5868 367.484 64.4185C367.394 64.2466 367.258 64.1141 367.076 64.021C366.893 63.9279 366.667 63.8813 366.399 63.8813C366.148 63.8813 365.928 63.9243 365.738 64.0103C365.552 64.0962 365.405 64.209 365.298 64.3486C365.194 64.4883 365.142 64.6387 365.142 64.7998H364.148C364.148 64.5921 364.202 64.3862 364.31 64.1821C364.417 63.978 364.571 63.7936 364.771 63.6289C364.976 63.4606 365.219 63.3281 365.502 63.2314C365.788 63.1312 366.107 63.0811 366.458 63.0811C366.881 63.0811 367.253 63.1527 367.575 63.2959C367.901 63.4391 368.155 63.6558 368.338 63.9458C368.524 64.2323 368.617 64.5921 368.617 65.0254V67.7324C368.617 67.9258 368.633 68.1317 368.666 68.3501C368.701 68.5685 368.753 68.7565 368.821 68.9141V69H367.785C367.735 68.8854 367.695 68.7332 367.667 68.5435C367.638 68.3501 367.624 68.1711 367.624 68.0063ZM367.795 65.4766L367.806 66.1748H366.802C366.519 66.1748 366.266 66.1981 366.044 66.2446C365.822 66.2876 365.636 66.3538 365.486 66.4434C365.335 66.5329 365.221 66.6457 365.142 66.7817C365.063 66.9142 365.024 67.07 365.024 67.249C365.024 67.4316 365.065 67.5981 365.147 67.7485C365.23 67.8989 365.353 68.0189 365.518 68.1084C365.686 68.1943 365.892 68.2373 366.136 68.2373C366.44 68.2373 366.709 68.1729 366.941 68.0439C367.174 67.915 367.359 67.7575 367.495 67.5713C367.634 67.3851 367.709 67.2043 367.72 67.0288L368.145 67.5068C368.119 67.6572 368.051 67.8237 367.94 68.0063C367.829 68.189 367.681 68.3644 367.495 68.5327C367.312 68.6974 367.094 68.8353 366.839 68.9463C366.589 69.0537 366.306 69.1074 365.991 69.1074C365.597 69.1074 365.251 69.0304 364.954 68.8765C364.66 68.7225 364.431 68.5166 364.267 68.2588C364.105 67.9974 364.025 67.7056 364.025 67.3833C364.025 67.0718 364.086 66.7979 364.208 66.5615C364.329 66.3216 364.505 66.1229 364.734 65.9653C364.963 65.8042 365.239 65.6825 365.561 65.6001C365.883 65.5177 366.243 65.4766 366.641 65.4766H367.795ZM371.26 60.75V69H370.261V60.75H371.26ZM376.411 67.6572V63.1885H377.41V69H376.459L376.411 67.6572ZM376.599 66.4326L377.012 66.4219C377.012 66.8086 376.971 67.1667 376.889 67.4961C376.81 67.8219 376.681 68.1048 376.502 68.3447C376.323 68.5846 376.088 68.7726 375.798 68.9087C375.508 69.0412 375.156 69.1074 374.74 69.1074C374.457 69.1074 374.198 69.0662 373.961 68.9839C373.729 68.9015 373.528 68.7744 373.36 68.6025C373.192 68.4307 373.061 68.2069 372.968 67.9312C372.878 67.6554 372.833 67.3242 372.833 66.9375V63.1885H373.827V66.9482C373.827 67.2096 373.856 67.4263 373.913 67.5981C373.974 67.7664 374.055 67.9007 374.155 68.001C374.259 68.0977 374.373 68.1657 374.499 68.2051C374.627 68.2445 374.76 68.2642 374.896 68.2642C375.319 68.2642 375.653 68.1836 375.9 68.0225C376.147 67.8577 376.325 67.6375 376.432 67.3618C376.543 67.0825 376.599 66.7728 376.599 66.4326ZM381.336 69.1074C380.931 69.1074 380.564 69.0394 380.235 68.9033C379.909 68.7637 379.628 68.5685 379.392 68.3179C379.159 68.0672 378.98 67.77 378.854 67.4263C378.729 67.0825 378.667 66.7065 378.667 66.2983V66.0728C378.667 65.6001 378.736 65.1794 378.876 64.8105C379.016 64.4382 379.205 64.123 379.445 63.8652C379.685 63.6074 379.957 63.4123 380.262 63.2798C380.566 63.1473 380.881 63.0811 381.207 63.0811C381.622 63.0811 381.98 63.1527 382.281 63.2959C382.586 63.4391 382.834 63.6396 383.028 63.8975C383.221 64.1517 383.364 64.4525 383.458 64.7998C383.551 65.1436 383.597 65.5195 383.597 65.9277V66.3735H379.257V65.5625H382.604V65.4873C382.589 65.2295 382.535 64.9788 382.442 64.7354C382.353 64.4919 382.21 64.2913 382.013 64.1338C381.816 63.9762 381.547 63.8975 381.207 63.8975C380.981 63.8975 380.774 63.9458 380.584 64.0425C380.394 64.1356 380.231 64.2752 380.095 64.4614C379.959 64.6476 379.854 64.875 379.778 65.1436C379.703 65.4121 379.666 65.7218 379.666 66.0728V66.2983C379.666 66.5741 379.703 66.8337 379.778 67.0771C379.857 67.3171 379.97 67.5283 380.117 67.7109C380.267 67.8936 380.448 68.0368 380.659 68.1406C380.874 68.2445 381.118 68.2964 381.39 68.2964C381.741 68.2964 382.038 68.2248 382.281 68.0815C382.525 67.9383 382.738 67.7467 382.92 67.5068L383.522 67.9849C383.397 68.1746 383.237 68.3555 383.044 68.5273C382.851 68.6992 382.612 68.8389 382.33 68.9463C382.05 69.0537 381.719 69.1074 381.336 69.1074Z" fill="#282C32"/>
</g>
</g>
<g filter="url(#filter2_d_61_5652)">
<g clip-path="url(#clip3_61_5652)">
<path d="M176 108C176 106.895 176.895 106 178 106H414C415.105 106 416 106.895 416 108V175C416 176.105 415.105 177 414 177H178C176.895 177 176 176.105 176 175V108Z" fill="white"/>
</g>
</g>
</g>
<g clip-path="url(#clip4_61_5652)">
<rect width="376" height="100" transform="translate(0 100)" fill="#9FA5AE"/>
<rect x="12" y="125" width="163" height="98" rx="2" fill="white"/>
<path d="M35.6484 141.852V142.367H33.4922V144.219H36.3828V144.727H30.0234V144.219H32.8828V142.367H30.8047V139.281H31.4297V141.852H35.6484ZM42.5469 142.031V142.539H37.75V139.336H42.4766V139.844H38.3594V142.031H42.5469ZM43.2969 144.172V144.688H36.9375V144.172H43.2969ZM49.6094 138.688V142.805H48.9922V141.711H47.3672V142.305H44.1797V139.219H47.3672V139.82H48.9922V138.688H49.6094ZM44.7891 139.719V141.805H46.7656V139.719H44.7891ZM47.3047 143.008C48.75 143.008 49.6328 143.484 49.6328 144.32C49.6328 145.148 48.75 145.617 47.3047 145.617C45.8594 145.617 44.9766 145.148 44.9766 144.32C44.9766 143.484 45.8594 143.008 47.3047 143.008ZM47.3047 143.484C46.2422 143.492 45.5781 143.797 45.5859 144.32C45.5781 144.82 46.2422 145.133 47.3047 145.133C48.3672 145.133 49.0234 144.82 49.0234 144.32C49.0234 143.797 48.3672 143.492 47.3047 143.484ZM47.3672 141.195H48.9922V140.328H47.3672V141.195ZM55.0234 139.344V145H54.3125V140.078H54.2812L52.9062 140.992V140.281L54.3125 139.344H55.0234Z" fill="#626872"/>
<rect x="64" y="137" width="99" height="10" rx="1" fill="#5E8EED"/>
<path d="M34.4609 157.852V158.367H32.3047V160.219H35.1953V160.727H28.8359V160.219H31.6953V158.367H29.6172V155.281H30.2422V157.852H34.4609ZM41.3594 158.031V158.539H36.5625V155.336H41.2891V155.844H37.1719V158.031H41.3594ZM42.1094 160.172V160.688H35.75V160.172H42.1094ZM48.4219 154.688V158.805H47.8047V157.711H46.1797V158.305H42.9922V155.219H46.1797V155.82H47.8047V154.688H48.4219ZM43.6016 155.719V157.805H45.5781V155.719H43.6016ZM46.1172 159.008C47.5625 159.008 48.4453 159.484 48.4453 160.32C48.4453 161.148 47.5625 161.617 46.1172 161.617C44.6719 161.617 43.7891 161.148 43.7891 160.32C43.7891 159.484 44.6719 159.008 46.1172 159.008ZM46.1172 159.484C45.0547 159.492 44.3906 159.797 44.3984 160.32C44.3906 160.82 45.0547 161.133 46.1172 161.133C47.1797 161.133 47.8359 160.82 47.8359 160.32C47.8359 159.797 47.1797 159.492 46.1172 159.484ZM46.1797 157.195H47.8047V156.328H46.1797V157.195ZM51.8359 161L51.8281 160.484L53.7578 158.453C54.4297 157.742 54.75 157.359 54.75 156.836C54.75 156.258 54.2578 155.875 53.625 155.875C52.9531 155.875 52.5234 156.305 52.5234 156.938H51.8594C51.8516 155.938 52.625 155.266 53.6484 155.266C54.6719 155.266 55.4062 155.953 55.4062 156.836C55.4062 157.469 55.1094 157.961 54.1094 158.992L52.8125 160.328V160.375H55.5078V161H51.8359Z" fill="#626872"/>
<rect x="64" y="153" width="53" height="10" rx="1" fill="#BACEF7"/>
<path d="M34.2188 173.852V174.367H32.0625V176.219H34.9531V176.727H28.5938V176.219H31.4531V174.367H29.375V171.281H30V173.852H34.2188ZM41.1172 174.031V174.539H36.3203V171.336H41.0469V171.844H36.9297V174.031H41.1172ZM41.8672 176.172V176.688H35.5078V176.172H41.8672ZM48.1797 170.688V174.805H47.5625V173.711H45.9375V174.305H42.75V171.219H45.9375V171.82H47.5625V170.688H48.1797ZM43.3594 171.719V173.805H45.3359V171.719H43.3594ZM45.875 175.008C47.3203 175.008 48.2031 175.484 48.2031 176.32C48.2031 177.148 47.3203 177.617 45.875 177.617C44.4297 177.617 43.5469 177.148 43.5469 176.32C43.5469 175.484 44.4297 175.008 45.875 175.008ZM45.875 175.484C44.8125 175.492 44.1484 175.797 44.1562 176.32C44.1484 176.82 44.8125 177.133 45.875 177.133C46.9375 177.133 47.5938 176.82 47.5938 176.32C47.5938 175.797 46.9375 175.492 45.875 175.484ZM45.9375 173.195H47.5625V172.328H45.9375V173.195ZM53.5469 177.078C52.4219 177.078 51.6172 176.477 51.5781 175.578H52.2891C52.3281 176.117 52.8672 176.453 53.5391 176.453C54.2812 176.453 54.8281 176.047 54.8281 175.461C54.8281 174.844 54.3359 174.406 53.4531 174.406H52.9922V173.789H53.4531C54.1406 173.789 54.6172 173.406 54.6172 172.82C54.6172 172.258 54.2031 171.875 53.5625 171.875C52.9609 171.875 52.4062 172.211 52.375 172.766H51.6953C51.7344 171.867 52.5625 171.266 53.5703 171.266C54.6484 171.266 55.3047 171.969 55.2969 172.781C55.3047 173.422 54.9297 173.898 54.3359 174.062V174.102C55.0703 174.219 55.5234 174.742 55.5156 175.461C55.5234 176.391 54.6719 177.078 53.5469 177.078Z" fill="#626872"/>
<rect x="64" y="169" width="32" height="10" rx="1" fill="#5E8EED"/>
<path d="M34.1641 189.852V190.367H32.0078V192.219H34.8984V192.727H28.5391V192.219H31.3984V190.367H29.3203V187.281H29.9453V189.852H34.1641ZM41.0625 190.031V190.539H36.2656V187.336H40.9922V187.844H36.875V190.031H41.0625ZM41.8125 192.172V192.688H35.4531V192.172H41.8125ZM48.125 186.688V190.805H47.5078V189.711H45.8828V190.305H42.6953V187.219H45.8828V187.82H47.5078V186.688H48.125ZM43.3047 187.719V189.805H45.2812V187.719H43.3047ZM45.8203 191.008C47.2656 191.008 48.1484 191.484 48.1484 192.32C48.1484 193.148 47.2656 193.617 45.8203 193.617C44.375 193.617 43.4922 193.148 43.4922 192.32C43.4922 191.484 44.375 191.008 45.8203 191.008ZM45.8203 191.484C44.7578 191.492 44.0938 191.797 44.1016 192.32C44.0938 192.82 44.7578 193.133 45.8203 193.133C46.8828 193.133 47.5391 192.82 47.5391 192.32C47.5391 191.797 46.8828 191.492 45.8203 191.484ZM45.8828 189.195H47.5078V188.328H45.8828V189.195ZM51.3984 191.844V191.266L53.9453 187.344H54.8125V191.227H55.6016V191.844H54.8125V193H54.1406V191.844H51.3984ZM52.1562 191.227H54.1406V188.234H54.0703L52.1562 191.18V191.227Z" fill="#626872"/>
<rect x="64" y="185" width="7" height="10" rx="1" fill="#BACEF7"/>
<g filter="url(#filter3_d_61_5652)">
<path d="M143.923 156.03C144.098 156.451 143.93 158.045 143 158.414C142.07 158.784 140.882 158.414 140.882 158.414L138.726 154.102L135 157.828V141L146.414 152.414H142.162C142.37 152.814 143.7 155.495 143.923 156.03Z" fill="white"/>
<path fill-rule="evenodd" clip-rule="evenodd" d="M136 143.414V155.414L139 152.414L141.5 157.414C141.5 157.414 142.176 157.63 142.5 157.414C142.824 157.199 143.146 156.764 143 156.414C142.312 154.764 140.5 151.414 140.5 151.414H144L136 143.414Z" fill="black"/>
</g>
<g filter="url(#filter4_d_61_5652)">
<g clip-path="url(#clip5_61_5652)">
<path d="M156 116C156 114.895 156.895 114 158 114H394C395.105 114 396 114.895 396 116V183C396 184.105 395.105 185 394 185H158C156.895 185 156 184.105 156 183V116Z" fill="white"/>
<path d="M169.428 124.643L169.756 125.557C169.4 125.686 169.158 125.914 169.029 126.242C168.9 126.566 168.836 126.941 168.836 127.367V128.562C168.836 128.957 168.748 129.314 168.572 129.635C168.4 129.955 168.127 130.211 167.752 130.402C167.377 130.59 166.887 130.684 166.281 130.684V129.793C166.652 129.793 166.918 129.682 167.078 129.459C167.242 129.236 167.324 128.938 167.324 128.562V127.367C167.324 126.957 167.387 126.574 167.512 126.219C167.641 125.859 167.857 125.545 168.162 125.275C168.471 125.002 168.893 124.791 169.428 124.643ZM169.756 135.201L169.428 136.121C168.893 135.969 168.471 135.756 168.162 135.482C167.857 135.213 167.641 134.898 167.512 134.539C167.387 134.184 167.324 133.801 167.324 133.391V132.195C167.324 131.945 167.287 131.729 167.213 131.545C167.143 131.361 167.031 131.221 166.879 131.123C166.727 131.021 166.527 130.971 166.281 130.971V130.074C166.887 130.074 167.377 130.17 167.752 130.361C168.127 130.549 168.4 130.803 168.572 131.123C168.748 131.443 168.836 131.801 168.836 132.195V133.391C168.836 133.676 168.863 133.939 168.918 134.182C168.977 134.424 169.07 134.633 169.199 134.809C169.332 134.984 169.518 135.115 169.756 135.201ZM171.581 128.732H179.453V130.004H171.581V128.732ZM170.453 132.536H180.521V133.82H170.453V132.536ZM174.677 129.488H176.273V132.896H174.677V129.488ZM171.581 124.796H173.177V129.284H171.581V124.796ZM182.668 129.08H190.48V130.34H182.668V129.08ZM181.492 132.428H191.56V133.724H181.492V132.428ZM182.668 124.856H190.396V126.152H184.252V129.608H182.668V124.856ZM197.895 125.552H200.727V126.824H197.895V125.552ZM197.895 127.772H200.775V129.044H197.895V127.772ZM200.223 123.956H201.831V130.46H200.223V123.956ZM192.975 124.748H198.231V129.86H192.975V124.748ZM196.671 126.008H194.547V128.612H196.671V126.008ZM198.063 130.748C199.239 130.748 200.167 130.94 200.847 131.324C201.527 131.7 201.867 132.224 201.867 132.896C201.867 133.584 201.527 134.116 200.847 134.492C200.167 134.876 199.239 135.068 198.063 135.068C196.887 135.068 195.959 134.876 195.279 134.492C194.599 134.116 194.259 133.584 194.259 132.896C194.259 132.224 194.599 131.7 195.279 131.324C195.959 130.94 196.887 130.748 198.063 130.748ZM198.063 131.972C197.583 131.972 197.179 132.004 196.851 132.068C196.523 132.132 196.271 132.236 196.095 132.38C195.927 132.516 195.843 132.692 195.843 132.908C195.843 133.116 195.927 133.292 196.095 133.436C196.271 133.572 196.523 133.676 196.851 133.748C197.179 133.812 197.583 133.844 198.063 133.844C198.543 133.844 198.947 133.812 199.275 133.748C199.603 133.676 199.851 133.572 200.019 133.436C200.187 133.292 200.271 133.116 200.271 132.908C200.271 132.692 200.187 132.516 200.019 132.38C199.851 132.236 199.603 132.132 199.275 132.068C198.947 132.004 198.543 131.972 198.063 131.972ZM203.277 125.557L203.605 124.643C204.145 124.791 204.566 125.002 204.871 125.275C205.176 125.545 205.391 125.859 205.516 126.219C205.645 126.574 205.709 126.957 205.709 127.367V128.562C205.709 128.812 205.744 129.029 205.814 129.213C205.885 129.396 205.996 129.539 206.148 129.641C206.305 129.742 206.506 129.793 206.752 129.793V130.66C206.146 130.66 205.656 130.568 205.281 130.385C204.906 130.201 204.631 129.951 204.455 129.635C204.279 129.314 204.191 128.957 204.191 128.562V127.367C204.191 127.082 204.164 126.818 204.109 126.576C204.059 126.334 203.967 126.125 203.834 125.949C203.701 125.773 203.516 125.643 203.277 125.557ZM203.605 136.121L203.277 135.201C203.516 135.115 203.701 134.984 203.834 134.809C203.967 134.633 204.059 134.424 204.109 134.182C204.164 133.939 204.191 133.676 204.191 133.391V132.195C204.191 131.801 204.279 131.445 204.455 131.129C204.631 130.812 204.906 130.562 205.281 130.379C205.656 130.191 206.146 130.098 206.752 130.098V130.971C206.385 130.971 206.119 131.082 205.955 131.305C205.791 131.527 205.709 131.824 205.709 132.195V133.391C205.709 133.801 205.645 134.184 205.516 134.539C205.391 134.898 205.176 135.213 204.871 135.482C204.566 135.756 204.145 135.969 203.605 136.121Z" fill="#E61A87"/>
<rect x="156" y="146" width="240" height="1" fill="#C9CDD2"/>
<circle cx="172" cy="165" r="4" fill="#5E8EED"/>
<path d="M180.312 165.073C181.16 165.073 181.45 164.751 181.45 163.924V162.42C181.45 161.013 181.955 160.39 183.459 160.39V161.152C182.578 161.152 182.299 161.55 182.299 162.431V164.225C182.299 164.837 182.1 165.304 181.225 165.481V165.6C182.1 165.771 182.299 166.233 182.299 166.856V168.64C182.299 169.521 182.578 169.918 183.459 169.918V170.691C181.955 170.691 181.45 170.068 181.45 168.65V167.157C181.45 166.33 181.16 165.997 180.312 165.997V165.073ZM191.87 164.171V164.88H188.905V167.426H192.88V168.124H184.136V167.426H188.067V164.88H185.21V160.637H186.069V164.171H191.87ZM201.355 164.418V165.116H194.76V160.712H201.259V161.41H195.598V164.418H201.355ZM202.387 167.361V168.07H193.643V167.361H202.387ZM211.066 159.82V165.481H210.218V163.978H207.983V164.794H203.601V160.551H207.983V161.378H210.218V159.82H211.066ZM204.438 161.238V164.106H207.156V161.238H204.438ZM207.897 165.761C209.885 165.761 211.099 166.416 211.099 167.565C211.099 168.704 209.885 169.349 207.897 169.349C205.91 169.349 204.696 168.704 204.696 167.565C204.696 166.416 205.91 165.761 207.897 165.761ZM207.897 166.416C206.437 166.427 205.523 166.846 205.534 167.565C205.523 168.253 206.437 168.683 207.897 168.683C209.358 168.683 210.261 168.253 210.261 167.565C210.261 166.846 209.358 166.427 207.897 166.416ZM207.983 163.269H210.218V162.076H207.983V163.269ZM215.707 165.997C214.858 165.997 214.568 166.33 214.568 167.157V168.65C214.568 170.068 214.063 170.691 212.56 170.691V169.918C213.44 169.918 213.72 169.521 213.72 168.64V166.856C213.72 166.233 213.918 165.771 214.794 165.6V165.481C213.918 165.304 213.72 164.837 213.72 164.225V162.431C213.72 161.55 213.44 161.152 212.56 161.152V160.39C214.063 160.39 214.568 161.013 214.568 162.42V163.924C214.568 164.751 214.858 165.073 215.707 165.073V165.997Z" fill="#282C32"/>
<path d="M360.722 168.103L362.312 163.188H363.327L361.237 169H360.571L360.722 168.103ZM359.395 163.188L361.033 168.13L361.146 169H360.48L358.375 163.188H359.395ZM367.624 168.006V165.015C367.624 164.785 367.577 164.587 367.484 164.418C367.394 164.247 367.258 164.114 367.076 164.021C366.893 163.928 366.667 163.881 366.399 163.881C366.148 163.881 365.928 163.924 365.738 164.01C365.552 164.096 365.405 164.209 365.298 164.349C365.194 164.488 365.142 164.639 365.142 164.8H364.148C364.148 164.592 364.202 164.386 364.31 164.182C364.417 163.978 364.571 163.794 364.771 163.629C364.976 163.461 365.219 163.328 365.502 163.231C365.788 163.131 366.107 163.081 366.458 163.081C366.881 163.081 367.253 163.153 367.575 163.296C367.901 163.439 368.155 163.656 368.338 163.946C368.524 164.232 368.617 164.592 368.617 165.025V167.732C368.617 167.926 368.633 168.132 368.666 168.35C368.701 168.569 368.753 168.757 368.821 168.914V169H367.785C367.735 168.885 367.695 168.733 367.667 168.543C367.638 168.35 367.624 168.171 367.624 168.006ZM367.795 165.477L367.806 166.175H366.802C366.519 166.175 366.266 166.198 366.044 166.245C365.822 166.288 365.636 166.354 365.486 166.443C365.335 166.533 365.221 166.646 365.142 166.782C365.063 166.914 365.024 167.07 365.024 167.249C365.024 167.432 365.065 167.598 365.147 167.749C365.23 167.899 365.353 168.019 365.518 168.108C365.686 168.194 365.892 168.237 366.136 168.237C366.44 168.237 366.709 168.173 366.941 168.044C367.174 167.915 367.359 167.757 367.495 167.571C367.634 167.385 367.709 167.204 367.72 167.029L368.145 167.507C368.119 167.657 368.051 167.824 367.94 168.006C367.829 168.189 367.681 168.364 367.495 168.533C367.312 168.697 367.094 168.835 366.839 168.946C366.589 169.054 366.306 169.107 365.991 169.107C365.597 169.107 365.251 169.03 364.954 168.876C364.66 168.722 364.431 168.517 364.267 168.259C364.105 167.997 364.025 167.706 364.025 167.383C364.025 167.072 364.086 166.798 364.208 166.562C364.329 166.322 364.505 166.123 364.734 165.965C364.963 165.804 365.239 165.682 365.561 165.6C365.883 165.518 366.243 165.477 366.641 165.477H367.795ZM371.26 160.75V169H370.261V160.75H371.26ZM376.411 167.657V163.188H377.41V169H376.459L376.411 167.657ZM376.599 166.433L377.012 166.422C377.012 166.809 376.971 167.167 376.889 167.496C376.81 167.822 376.681 168.105 376.502 168.345C376.323 168.585 376.088 168.773 375.798 168.909C375.508 169.041 375.156 169.107 374.74 169.107C374.457 169.107 374.198 169.066 373.961 168.984C373.729 168.902 373.528 168.774 373.36 168.603C373.192 168.431 373.061 168.207 372.968 167.931C372.878 167.655 372.833 167.324 372.833 166.938V163.188H373.827V166.948C373.827 167.21 373.856 167.426 373.913 167.598C373.974 167.766 374.055 167.901 374.155 168.001C374.259 168.098 374.373 168.166 374.499 168.205C374.627 168.244 374.76 168.264 374.896 168.264C375.319 168.264 375.653 168.184 375.9 168.022C376.147 167.858 376.325 167.638 376.432 167.362C376.543 167.083 376.599 166.773 376.599 166.433ZM381.336 169.107C380.931 169.107 380.564 169.039 380.235 168.903C379.909 168.764 379.628 168.569 379.392 168.318C379.159 168.067 378.98 167.77 378.854 167.426C378.729 167.083 378.667 166.707 378.667 166.298V166.073C378.667 165.6 378.736 165.179 378.876 164.811C379.016 164.438 379.205 164.123 379.445 163.865C379.685 163.607 379.957 163.412 380.262 163.28C380.566 163.147 380.881 163.081 381.207 163.081C381.622 163.081 381.98 163.153 382.281 163.296C382.586 163.439 382.834 163.64 383.028 163.897C383.221 164.152 383.364 164.452 383.458 164.8C383.551 165.144 383.597 165.52 383.597 165.928V166.374H379.257V165.562H382.604V165.487C382.589 165.229 382.535 164.979 382.442 164.735C382.353 164.492 382.21 164.291 382.013 164.134C381.816 163.976 381.547 163.897 381.207 163.897C380.981 163.897 380.774 163.946 380.584 164.042C380.394 164.136 380.231 164.275 380.095 164.461C379.959 164.648 379.854 164.875 379.778 165.144C379.703 165.412 379.666 165.722 379.666 166.073V166.298C379.666 166.574 379.703 166.834 379.778 167.077C379.857 167.317 379.97 167.528 380.117 167.711C380.267 167.894 380.448 168.037 380.659 168.141C380.874 168.244 381.118 168.296 381.39 168.296C381.741 168.296 382.038 168.225 382.281 168.082C382.525 167.938 382.738 167.747 382.92 167.507L383.522 167.985C383.397 168.175 383.237 168.355 383.044 168.527C382.851 168.699 382.612 168.839 382.33 168.946C382.05 169.054 381.719 169.107 381.336 169.107Z" fill="#282C32"/>
</g>
</g>
<g filter="url(#filter5_d_61_5652)">
<g clip-path="url(#clip6_61_5652)">
<path d="M176 208C176 206.895 176.895 206 178 206H414C415.105 206 416 206.895 416 208V275C416 276.105 415.105 277 414 277H178C176.895 277 176 276.105 176 275V208Z" fill="white"/>
</g>
</g>
</g>
</g>
<defs>
<filter id="filter0_d_61_5652" x="126.2" y="37.2" width="27.6" height="27.6" filterUnits="userSpaceOnUse" color-interpolation-filters="sRGB">
<feFlood flood-opacity="0" result="BackgroundImageFix"/>
<feColorMatrix in="SourceAlpha" type="matrix" values="0 0 0 0 0 0 0 0 0 0 0 0 0 0 0 0 0 0 127 0" result="hardAlpha"/>
<feOffset dy="1"/>
<feGaussianBlur stdDeviation="0.9"/>
<feColorMatrix type="matrix" values="0 0 0 0 0 0 0 0 0 0 0 0 0 0 0 0 0 0 0.65 0"/>
<feBlend mode="normal" in2="BackgroundImageFix" result="effect1_dropShadow_61_5652"/>
<feBlend mode="normal" in="SourceGraphic" in2="effect1_dropShadow_61_5652" result="shape"/>
</filter>
<filter id="filter1_d_61_5652" x="138" y="1" width="276" height="107" filterUnits="userSpaceOnUse" color-interpolation-filters="sRGB">
<feFlood flood-opacity="0" result="BackgroundImageFix"/>
<feColorMatrix in="SourceAlpha" type="matrix" values="0 0 0 0 0 0 0 0 0 0 0 0 0 0 0 0 0 0 127 0" result="hardAlpha"/>
<feOffset dy="5"/>
<feGaussianBlur stdDeviation="9"/>
<feComposite in2="hardAlpha" operator="out"/>
<feColorMatrix type="matrix" values="0 0 0 0 0 0 0 0 0 0.0823529 0 0 0 0 0.176471 0 0 0 0.16 0"/>
<feBlend mode="normal" in2="BackgroundImageFix" result="effect1_dropShadow_61_5652"/>
<feBlend mode="normal" in="SourceGraphic" in2="effect1_dropShadow_61_5652" result="shape"/>
</filter>
<filter id="filter2_d_61_5652" x="158" y="93" width="276" height="107" filterUnits="userSpaceOnUse" color-interpolation-filters="sRGB">
<feFlood flood-opacity="0" result="BackgroundImageFix"/>
<feColorMatrix in="SourceAlpha" type="matrix" values="0 0 0 0 0 0 0 0 0 0 0 0 0 0 0 0 0 0 127 0" result="hardAlpha"/>
<feOffset dy="5"/>
<feGaussianBlur stdDeviation="9"/>
<feComposite in2="hardAlpha" operator="out"/>
<feColorMatrix type="matrix" values="0 0 0 0 0 0 0 0 0 0.0823529 0 0 0 0 0.176471 0 0 0 0.16 0"/>
<feBlend mode="normal" in2="BackgroundImageFix" result="effect1_dropShadow_61_5652"/>
<feBlend mode="normal" in="SourceGraphic" in2="effect1_dropShadow_61_5652" result="shape"/>
</filter>
<filter id="filter3_d_61_5652" x="126.2" y="137.2" width="27.6" height="27.6" filterUnits="userSpaceOnUse" color-interpolation-filters="sRGB">
<feFlood flood-opacity="0" result="BackgroundImageFix"/>
<feColorMatrix in="SourceAlpha" type="matrix" values="0 0 0 0 0 0 0 0 0 0 0 0 0 0 0 0 0 0 127 0" result="hardAlpha"/>
<feOffset dy="1"/>
<feGaussianBlur stdDeviation="0.9"/>
<feColorMatrix type="matrix" values="0 0 0 0 0 0 0 0 0 0 0 0 0 0 0 0 0 0 0.65 0"/>
<feBlend mode="normal" in2="BackgroundImageFix" result="effect1_dropShadow_61_5652"/>
<feBlend mode="normal" in="SourceGraphic" in2="effect1_dropShadow_61_5652" result="shape"/>
</filter>
<filter id="filter4_d_61_5652" x="138" y="101" width="276" height="107" filterUnits="userSpaceOnUse" color-interpolation-filters="sRGB">
<feFlood flood-opacity="0" result="BackgroundImageFix"/>
<feColorMatrix in="SourceAlpha" type="matrix" values="0 0 0 0 0 0 0 0 0 0 0 0 0 0 0 0 0 0 127 0" result="hardAlpha"/>
<feOffset dy="5"/>
<feGaussianBlur stdDeviation="9"/>
<feComposite in2="hardAlpha" operator="out"/>
<feColorMatrix type="matrix" values="0 0 0 0 0 0 0 0 0 0.0823529 0 0 0 0 0.176471 0 0 0 0.16 0"/>
<feBlend mode="normal" in2="BackgroundImageFix" result="effect1_dropShadow_61_5652"/>
<feBlend mode="normal" in="SourceGraphic" in2="effect1_dropShadow_61_5652" result="shape"/>
</filter>
<filter id="filter5_d_61_5652" x="158" y="193" width="276" height="107" filterUnits="userSpaceOnUse" color-interpolation-filters="sRGB">
<feFlood flood-opacity="0" result="BackgroundImageFix"/>
<feColorMatrix in="SourceAlpha" type="matrix" values="0 0 0 0 0 0 0 0 0 0 0 0 0 0 0 0 0 0 127 0" result="hardAlpha"/>
<feOffset dy="5"/>
<feGaussianBlur stdDeviation="9"/>
<feComposite in2="hardAlpha" operator="out"/>
<feColorMatrix type="matrix" values="0 0 0 0 0 0 0 0 0 0.0823529 0 0 0 0 0.176471 0 0 0 0.16 0"/>
<feBlend mode="normal" in2="BackgroundImageFix" result="effect1_dropShadow_61_5652"/>
<feBlend mode="normal" in="SourceGraphic" in2="effect1_dropShadow_61_5652" result="shape"/>
</filter>
<clipPath id="clip0_61_5652">
<rect width="376" height="200" rx="4" fill="white"/>
</clipPath>
<clipPath id="clip1_61_5652">
<rect width="376" height="100" fill="white"/>
</clipPath>
<clipPath id="clip2_61_5652">
<path d="M156 16C156 14.8954 156.895 14 158 14H394C395.105 14 396 14.8954 396 16V83C396 84.1046 395.105 85 394 85H158C156.895 85 156 84.1046 156 83V16Z" fill="white"/>
</clipPath>
<clipPath id="clip3_61_5652">
<path d="M176 108C176 106.895 176.895 106 178 106H414C415.105 106 416 106.895 416 108V175C416 176.105 415.105 177 414 177H178C176.895 177 176 176.105 176 175V108Z" fill="white"/>
</clipPath>
<clipPath id="clip4_61_5652">
<rect width="376" height="100" fill="white" transform="translate(0 100)"/>
</clipPath>
<clipPath id="clip5_61_5652">
<path d="M156 116C156 114.895 156.895 114 158 114H394C395.105 114 396 114.895 396 116V183C396 184.105 395.105 185 394 185H158C156.895 185 156 184.105 156 183V116Z" fill="white"/>
</clipPath>
<clipPath id="clip6_61_5652">
<path d="M176 208C176 206.895 176.895 206 178 206H414C415.105 206 416 206.895 416 208V275C416 276.105 415.105 277 414 277H178C176.895 277 176 276.105 176 275V208Z" fill="white"/>
</clipPath>
</defs>
</svg>
